<svg width="29" height="33" viewBox="0 0 29 33" fill="none" xmlns="http://www.w3.org/2000/svg">
<path d="M28.24 13.5986C26.375 11.676 23.986 10.3441 21.37 9.76858C19.4494 9.28588 17.48 9.02418 15.5 8.98858V3.68858C15.4687 2.79023 15.0829 1.94084 14.427 1.32618C13.7711 0.711512 12.8985 0.381594 12 0.408577C11.1015 0.381594 10.2289 0.711512 9.573 1.32618C8.91711 1.94084 8.53132 2.79023 8.5 3.68858V13.6886L6.9 12.1086C6.19519 11.4172 5.24729 11.0299 4.26 11.0299C3.2727 11.0299 2.32481 11.4172 1.62 12.1086C1.26687 12.4497 0.985793 12.8583 0.793411 13.3101C0.60103 13.7618 0.501255 14.2476 0.499997 14.7386C0.481661 15.6906 0.841229 16.6111 1.5 17.2986L6.16 22.8186C6.38481 24.229 6.86971 25.5853 7.59 26.8186C8.11625 27.7669 8.79153 28.6246 9.59 29.3586V31.2786C9.58685 31.5524 9.68878 31.8169 9.8748 32.0178C10.0608 32.2187 10.3168 32.3407 10.59 32.3586H24.5C24.7732 32.3407 25.0292 32.2187 25.2152 32.0178C25.4012 31.8169 25.5031 31.5524 25.5 31.2786V28.5786C27.465 26.2389 28.529 23.2738 28.5 20.2186V14.2186C28.4875 13.9881 28.3956 13.769 28.24 13.5986ZM26.5 20.2686C26.5639 22.9273 25.6372 25.5149 23.9 27.5286C23.6793 27.7084 23.5361 27.9662 23.5 28.2486V30.4086H11.64V28.9286C11.6402 28.7648 11.6002 28.6034 11.5235 28.4587C11.4468 28.314 11.3357 28.1903 11.2 28.0986C10.4506 27.4842 9.83175 26.7259 9.38 25.8686C8.743 24.7899 8.33454 23.5917 8.18 22.3486C8.16927 22.1322 8.08855 21.9251 7.95 21.7586L3.03 15.9386C2.86975 15.7804 2.74251 15.592 2.65567 15.3843C2.56883 15.1766 2.52411 14.9537 2.52411 14.7286C2.52411 14.5034 2.56883 14.2805 2.65567 14.0728C2.74251 13.8651 2.86975 13.6767 3.03 13.5186C3.35926 13.1943 3.80286 13.0125 4.265 13.0125C4.72714 13.0125 5.17074 13.1943 5.5 13.5186L8.5 16.5186V19.6586L10.5 18.6586V3.68858C10.5356 3.3225 10.7118 2.9845 10.9916 2.74576C11.2714 2.50701 11.6329 2.38613 12 2.40858C12.3671 2.38613 12.7286 2.50701 13.0084 2.74576C13.2882 2.9845 13.4644 3.3225 13.5 3.68858V15.4886L15.5 15.9186V10.9986C16.3392 11.0151 17.177 11.0752 18.01 11.1786V16.4086L19.61 16.7586V11.4086C20.02 11.4886 20.44 11.5786 20.87 11.6886C21.3884 11.8242 21.8992 11.9878 22.4 12.1786V17.3286L24 17.6786V12.9086C24.909 13.3674 25.7503 13.9496 26.5 14.6386V20.2686Z" fill="white"/>
</svg>
