<svg width="344" height="237" viewBox="0 0 344 237" fill="none" xmlns="http://www.w3.org/2000/svg">
<g clip-path="url(#clip0_700_146)">
<path d="M295.327 99.1421C300.069 104.129 305.359 104.925 311.197 101.53C308.747 97.5916 308.164 93.3084 308.817 88.7963H297.443C297.947 92.7613 297.812 96.4532 295.327 99.1421Z" fill="#FFB8B8"/>
<path d="M314.107 229.657L320.191 226.474L322.835 192.784V175.011L308.817 174.745L312.784 192.519L314.107 229.657Z" fill="#FFB8B8"/>
<path d="M296.472 229.657L290.389 226.474L287.744 192.784V175.011L301.762 174.745L297.795 192.519L296.472 229.657Z" fill="#FFB8B8"/>
<path d="M287.128 178.725L301.94 177.398L304.32 163.869L307.23 177.133L323.364 176.072C323.717 169.626 322.822 162.992 320.719 156.176L285.276 155.38L287.128 178.725Z" fill="#03183F"/>
<path d="M271.732 127.916L253.915 114.156C253.73 114.013 253.527 113.896 253.311 113.807L250.721 112.751C248.641 111.902 244.679 109.079 246.611 106.172C248.169 103.828 254.132 108.027 254.866 109.582C255.098 110.072 255.478 110.475 255.952 110.735L259.573 112.725C259.661 112.773 259.752 112.816 259.845 112.854L273.63 118.458C274.012 118.613 274.426 118.675 274.837 118.638C275.247 118.601 275.643 118.466 275.991 118.244L278.491 116.655C278.846 116.429 279.251 116.293 279.671 116.259C280.091 116.225 280.513 116.295 280.9 116.461C281.287 116.628 281.627 116.886 281.892 117.214C282.157 117.543 282.338 117.931 282.42 118.345L283.246 122.526C283.365 123.128 283.268 123.753 282.972 124.29C282.675 124.827 282.199 125.241 281.627 125.46L274.236 128.285C273.822 128.443 273.375 128.492 272.936 128.428C272.498 128.363 272.083 128.187 271.732 127.916V127.916Z" fill="#FFB8B8"/>
<path d="M275.042 117.89C279.975 116.563 279.457 123.475 283.221 126.874L290.62 121.015L286.334 100.203C285.184 100.533 284.126 101.126 283.244 101.936C282.362 102.746 281.68 103.751 281.252 104.871L275.042 117.89Z" fill="#9C0332"/>
<path d="M284.218 156.707H321.513C315.477 140.394 316.065 123.616 321.204 106.519C321.29 106.235 321.275 105.93 321.161 105.656C321.047 105.383 320.841 105.157 320.579 105.019L309.875 99.4073C305.673 102.15 301.157 101.307 296.385 97.5504L284.747 100.734C287.915 119.817 288.005 138.509 284.218 156.707Z" fill="#9C0332"/>
<path d="M293.544 235.888L278.002 236.549C277.325 236.577 276.661 236.354 276.139 235.922C275.616 235.489 275.272 234.878 275.172 234.206V234.206C275.071 233.528 275.226 232.836 275.607 232.266C275.988 231.696 276.568 231.29 277.232 231.127L279.868 230.479L290.229 224.455C291.764 226.05 293.878 227.398 296.462 228.546L296.492 232.78C296.498 233.58 296.194 234.352 295.644 234.931C295.094 235.511 294.341 235.854 293.544 235.888V235.888Z" fill="#03183F"/>
<path d="M343.846 236.603H0.125V235.751H344L343.846 236.603Z" fill="#3F3D56" fill-opacity="0.4"/>
<path d="M316.906 235.651L332.449 236.312C333.125 236.341 333.789 236.117 334.311 235.685C334.834 235.252 335.178 234.642 335.278 233.97V233.97C335.38 233.291 335.224 232.599 334.843 232.029C334.462 231.46 333.883 231.053 333.218 230.89L330.582 230.242L320.221 224.219C318.686 225.813 316.572 227.161 313.988 228.309L313.958 232.544C313.952 233.344 314.256 234.115 314.806 234.695C315.356 235.274 316.109 235.617 316.906 235.651V235.651Z" fill="#03183F"/>
<path d="M301.94 93.5713C306.614 93.5713 310.404 89.7707 310.404 85.0825C310.404 80.3942 306.614 76.5937 301.94 76.5937C297.265 76.5937 293.476 80.3942 293.476 85.0825C293.476 89.7707 297.265 93.5713 301.94 93.5713Z" fill="#FFB8B8"/>
<path d="M315.165 154.054L312.369 159.507C312.122 159.988 311.979 160.516 311.951 161.057C311.922 161.597 312.008 162.137 312.202 162.642C312.396 163.147 312.695 163.605 313.078 163.986C313.462 164.366 313.921 164.661 314.426 164.851V164.851C314.961 165.053 315.534 165.131 316.103 165.081C316.672 165.031 317.222 164.854 317.714 164.562C318.205 164.271 318.626 163.873 318.944 163.398C319.262 162.922 319.47 162.381 319.552 161.814L320.719 153.789L324.951 133.628L324.687 123.547H316.223C319.11 131.045 317.678 142.104 315.165 154.054Z" fill="#FFB8B8"/>
<path d="M314.9 124.608H326.274L324.623 112.099C324.399 110.402 323.755 108.789 322.75 107.406C321.745 106.023 320.41 104.915 318.868 104.182L314.9 124.608Z" fill="#9C0332"/>
<path d="M310.938 80.4067C311.107 79.2728 311.036 78.1158 310.73 77.0112C310.423 75.9066 309.888 74.8791 309.159 73.9958C307.715 72.282 305.295 70.8792 301.279 71.541C292.517 72.9848 289.99 80.3003 290.849 82.14C291.707 83.9798 294.338 88.2445 294.338 88.2445C294.338 88.2445 292.407 84.0228 294.503 83.1635C296.599 82.3042 304.71 78.919 307.541 80.444C308.342 80.8476 309.022 81.4569 309.513 82.2099C310.003 82.963 310.285 83.8329 310.331 84.731L310.938 80.4067Z" fill="#03183F"/>
<path d="M166.07 45.0779L162.667 46.8097C158.747 39.0689 153.554 32.0463 147.306 26.037C116.624 -3.54621 67.6646 -2.57901 38.1677 28.1931C8.67073 58.9651 9.63511 108.068 40.3174 137.651C46.1571 143.293 52.8472 147.976 60.1414 151.528L58.4767 154.971C46.9151 149.341 36.8553 141.033 29.1284 130.732C21.4015 120.432 16.2293 108.435 14.0392 95.7339C11.849 83.0325 12.7038 69.9906 16.5329 57.686C20.3619 45.3813 27.0554 34.167 36.0602 24.9697C45.065 15.7724 56.1226 8.85602 68.3196 4.79205C80.5165 0.728084 93.5025 -0.366823 106.205 1.59779C118.907 3.56241 130.961 8.53015 141.37 16.0906C151.78 23.651 160.246 33.5871 166.07 45.0779V45.0779Z" fill="#E6E6E6"/>
<path d="M50.9385 116.279C45.933 121.501 43.2008 128.503 43.3431 135.746C43.4853 142.988 46.4903 149.877 51.697 154.897C56.9036 159.917 63.8855 162.657 71.1066 162.515C78.3277 162.372 85.1965 159.358 90.2021 154.136L94.8903 149.245L55.6268 111.388L50.9385 116.279Z" fill="#E6E6E6"/>
<path d="M52.996 108.611C51.8818 109.775 51.2739 111.336 51.3056 112.95C51.3373 114.564 52.006 116.099 53.1651 117.22L89.1775 151.942C90.3382 153.061 91.8947 153.672 93.5045 153.64C95.1143 153.608 96.6456 152.936 97.7614 151.772C98.8773 150.608 99.4864 149.047 99.4547 147.433C99.423 145.818 98.7531 144.282 97.5924 143.163L61.58 108.441C60.4184 107.324 58.8623 106.714 57.253 106.746C55.6438 106.777 54.1128 107.448 52.996 108.611Z" fill="#03183F"/>
<path d="M161.007 80.2704L165.695 75.3795C170.701 70.1576 173.433 63.1553 173.291 55.9131C173.148 48.6709 170.143 41.7819 164.937 36.7618C162.359 34.276 159.318 32.3239 155.987 31.0169C152.657 29.7099 149.103 29.0735 145.527 29.1441C138.306 29.2868 131.437 32.3005 126.432 37.5224L121.743 42.4134L161.007 80.2704Z" fill="#E6E6E6"/>
<path d="M118.872 39.8864C117.758 41.0514 117.15 42.6121 117.182 44.226C117.214 45.84 117.882 47.3754 119.041 48.4955L155.054 83.2179C156.215 84.3357 157.771 84.9454 159.38 84.913C160.989 84.8807 162.519 84.2089 163.635 83.0453C164.75 81.8817 165.359 80.3216 165.328 78.7078C165.297 77.094 164.628 75.5587 163.469 74.4392L127.456 39.7168C126.295 38.5994 124.739 37.9897 123.129 38.0215C121.52 38.0533 119.989 38.724 118.872 39.8864V39.8864Z" fill="#03183F"/>
<path d="M134.064 120.129V117.308C134.064 117.308 146.338 110.383 156.312 117.308V119.873L134.064 120.129Z" fill="#03183F"/>
<path d="M245.814 120.129V117.308C245.814 117.308 258.089 110.383 268.062 117.308V119.873L245.814 120.129Z" fill="#03183F"/>
<path d="M170.888 119.873H158.869C158.869 119.873 155.8 116.282 145.571 116.539C135.342 116.795 133.297 119.873 133.297 119.873C133.297 119.873 123.196 126.669 120.894 135.133C120.894 135.133 108.492 172.449 108.236 201.686C107.98 230.924 119.232 235.027 125.114 235.797C130.995 236.566 141.48 235.54 151.709 209.637L156.056 194.505C156.056 194.505 156.823 185.529 166.029 191.171C175.235 196.813 183.418 188.094 183.418 188.094H217.94C217.94 188.094 229.448 195.275 239.932 189.632C239.932 189.632 244.024 184.246 247.86 202.456C247.86 202.456 259.623 239.9 277.779 236.053C295.935 232.206 293.89 200.917 293.89 200.917C293.89 200.917 291.46 153.085 281.487 136.158C281.487 136.158 271.898 118.59 265.505 117.821C265.505 117.821 251.696 115.256 246.325 117.564L243.257 120.129L170.888 119.873Z" fill="#E6E6E6"/>
<path d="M143.014 167.319C155.301 167.319 165.262 157.33 165.262 145.007C165.262 132.684 155.301 122.694 143.014 122.694C130.727 122.694 120.766 132.684 120.766 145.007C120.766 157.33 130.727 167.319 143.014 167.319Z" fill="#03183F"/>
<path d="M259.112 167.319C271.399 167.319 281.359 157.33 281.359 145.007C281.359 132.684 271.399 122.694 259.112 122.694C246.824 122.694 236.864 132.684 236.864 145.007C236.864 157.33 246.824 167.319 259.112 167.319Z" fill="#03183F"/>
<path d="M146.891 140.031L143.924 142.663C143.673 142.884 143.35 143.007 143.015 143.007C142.681 143.007 142.357 142.884 142.106 142.663L139.135 140.031C138.989 139.903 138.873 139.745 138.793 139.568C138.712 139.391 138.67 139.2 138.669 139.005V131.765C138.67 131.4 138.815 131.049 139.073 130.791C139.331 130.533 139.681 130.388 140.045 130.388H145.991C146.355 130.387 146.704 130.532 146.962 130.789C147.22 131.047 147.366 131.397 147.366 131.763V139C147.365 139.196 147.322 139.389 147.24 139.567C147.157 139.745 147.039 139.903 146.891 140.031Z" fill="#E6E6E6"/>
<path d="M146.891 149.98L143.924 147.351C143.673 147.129 143.35 147.007 143.015 147.007C142.681 147.007 142.357 147.129 142.106 147.351L139.135 149.982C138.989 150.111 138.873 150.268 138.793 150.445C138.712 150.622 138.67 150.814 138.669 151.008V158.241C138.669 158.606 138.813 158.956 139.07 159.215C139.327 159.474 139.676 159.62 140.04 159.62H145.991C146.355 159.621 146.704 159.477 146.962 159.219C147.22 158.961 147.366 158.611 147.366 158.246V151.011C147.365 150.815 147.322 150.621 147.239 150.444C147.157 150.266 147.039 150.108 146.891 149.98V149.98Z" fill="#E6E6E6"/>
<path d="M138.056 148.9L140.679 145.92C140.9 145.668 141.022 145.344 141.022 145.008C141.022 144.672 140.9 144.348 140.679 144.096L138.056 141.116C137.927 140.97 137.77 140.854 137.594 140.773C137.418 140.693 137.226 140.65 137.033 140.649H129.821C129.457 140.65 129.108 140.796 128.85 141.054C128.593 141.313 128.448 141.664 128.448 142.029V147.992C128.447 148.357 128.591 148.708 128.849 148.967C129.106 149.225 129.455 149.371 129.819 149.372H137.035C137.229 149.37 137.42 149.327 137.596 149.245C137.772 149.164 137.928 149.046 138.056 148.9V148.9Z" fill="#E6E6E6"/>
<path d="M147.975 148.9L145.356 145.917C145.135 145.665 145.012 145.341 145.012 145.005C145.012 144.67 145.135 144.345 145.356 144.094L147.98 141.113C148.108 140.968 148.265 140.851 148.442 140.77C148.618 140.69 148.809 140.648 149.003 140.647H156.214C156.579 140.646 156.928 140.79 157.186 141.048C157.444 141.306 157.589 141.656 157.59 142.021V147.989C157.591 148.355 157.447 148.705 157.19 148.964C156.933 149.223 156.584 149.369 156.219 149.369H149.006C148.81 149.369 148.618 149.327 148.44 149.246C148.262 149.165 148.104 149.047 147.975 148.9V148.9Z" fill="#E6E6E6"/>
<path d="M173.189 185.529C182.087 185.529 189.3 178.295 189.3 169.371C189.3 160.448 182.087 153.214 173.189 153.214C164.292 153.214 157.079 160.448 157.079 169.371C157.079 178.295 164.292 185.529 173.189 185.529Z" fill="#03183F"/>
<path d="M228.936 185.529C237.834 185.529 245.047 178.295 245.047 169.371C245.047 160.448 237.834 153.214 228.936 153.214C220.039 153.214 212.826 160.448 212.826 169.371C212.826 178.295 220.039 185.529 228.936 185.529Z" fill="#03183F"/>
<path d="M173.189 180.143C179.121 180.143 183.929 175.32 183.929 169.371C183.929 163.422 179.121 158.6 173.189 158.6C167.257 158.6 162.449 163.422 162.449 169.371C162.449 175.32 167.257 180.143 173.189 180.143Z" fill="#E6E6E6"/>
<path d="M173.189 176.809C171.723 176.809 170.289 176.373 169.069 175.555C167.85 174.738 166.899 173.577 166.338 172.217C165.777 170.858 165.63 169.363 165.916 167.92C166.202 166.477 166.908 165.152 167.945 164.112C168.983 163.072 170.304 162.363 171.742 162.077C173.181 161.79 174.672 161.937 176.027 162.5C177.382 163.063 178.54 164.016 179.355 165.239C180.17 166.462 180.605 167.9 180.605 169.371C180.603 171.343 179.821 173.234 178.431 174.628C177.04 176.022 175.155 176.807 173.189 176.809V176.809ZM173.189 162.447C171.824 162.447 170.489 162.853 169.353 163.614C168.218 164.374 167.333 165.456 166.81 166.721C166.288 167.987 166.151 169.379 166.417 170.722C166.684 172.065 167.341 173.299 168.307 174.268C169.273 175.236 170.503 175.896 171.842 176.163C173.182 176.43 174.57 176.293 175.831 175.769C177.093 175.245 178.171 174.357 178.93 173.218C179.689 172.08 180.094 170.741 180.094 169.371C180.092 167.535 179.364 165.775 178.069 164.477C176.775 163.179 175.02 162.449 173.189 162.447V162.447Z" fill="#03183F"/>
<path d="M228.936 180.143C234.868 180.143 239.677 175.32 239.677 169.371C239.677 163.422 234.868 158.6 228.936 158.6C223.005 158.6 218.196 163.422 218.196 169.371C218.196 175.32 223.005 180.143 228.936 180.143Z" fill="#E6E6E6"/>
<path d="M228.936 176.809C227.47 176.809 226.036 176.373 224.816 175.555C223.597 174.738 222.646 173.577 222.085 172.217C221.524 170.858 221.377 169.363 221.663 167.92C221.949 166.477 222.655 165.152 223.693 164.112C224.73 163.072 226.051 162.363 227.49 162.077C228.928 161.79 230.419 161.937 231.774 162.5C233.129 163.063 234.288 164.016 235.103 165.239C235.917 166.462 236.352 167.9 236.352 169.371C236.35 171.343 235.568 173.234 234.178 174.628C232.787 176.022 230.903 176.807 228.936 176.809ZM228.936 162.447C227.571 162.447 226.236 162.853 225.1 163.614C223.965 164.374 223.08 165.456 222.558 166.721C222.035 167.987 221.898 169.379 222.165 170.722C222.431 172.065 223.089 173.299 224.054 174.268C225.02 175.236 226.25 175.896 227.589 176.163C228.929 176.43 230.317 176.293 231.579 175.769C232.84 175.245 233.919 174.357 234.677 173.218C235.436 172.08 235.841 170.741 235.841 169.371C235.839 167.535 235.111 165.775 233.816 164.477C232.522 163.179 230.767 162.449 228.936 162.447V162.447Z" fill="#03183F"/>
<path d="M201.574 175.783C204.116 175.783 206.177 173.716 206.177 171.166C206.177 168.617 204.116 166.55 201.574 166.55C199.032 166.55 196.971 168.617 196.971 171.166C196.971 173.716 199.032 175.783 201.574 175.783Z" fill="#03183F"/>
<path d="M194.539 156.766C195.094 156.766 195.544 156.315 195.544 155.758C195.544 155.201 195.094 154.75 194.539 154.75C193.984 154.75 193.534 155.201 193.534 155.758C193.534 156.315 193.984 156.766 194.539 156.766Z" fill="#03183F"/>
<path d="M198.304 156.766C198.859 156.766 199.309 156.315 199.309 155.758C199.309 155.201 198.859 154.75 198.304 154.75C197.749 154.75 197.299 155.201 197.299 155.758C197.299 156.315 197.749 156.766 198.304 156.766Z" fill="#03183F"/>
<path d="M197.802 161.549C198.357 161.549 198.807 161.098 198.807 160.541C198.807 159.984 198.357 159.533 197.802 159.533C197.247 159.533 196.797 159.984 196.797 160.541C196.797 161.098 197.247 161.549 197.802 161.549Z" fill="#03183F"/>
<path d="M201.319 161.677C201.883 161.677 202.341 161.218 202.341 160.651C202.341 160.085 201.883 159.625 201.319 159.625C200.754 159.625 200.296 160.085 200.296 160.651C200.296 161.218 200.754 161.677 201.319 161.677Z" fill="#03183F"/>
<path d="M204.83 161.549C205.385 161.549 205.835 161.098 205.835 160.541C205.835 159.984 205.385 159.533 204.83 159.533C204.275 159.533 203.825 159.984 203.825 160.541C203.825 161.098 204.275 161.549 204.83 161.549Z" fill="#03183F"/>
<path d="M196.296 159.284C196.851 159.284 197.301 158.833 197.301 158.276C197.301 157.72 196.851 157.268 196.296 157.268C195.741 157.268 195.291 157.72 195.291 158.276C195.291 158.833 195.741 159.284 196.296 159.284Z" fill="#03183F"/>
<path d="M199.528 159.369C200.093 159.369 200.551 158.91 200.551 158.343C200.551 157.776 200.093 157.317 199.528 157.317C198.964 157.317 198.506 157.776 198.506 158.343C198.506 158.91 198.964 159.369 199.528 159.369Z" fill="#03183F"/>
<path d="M202.853 159.369C203.418 159.369 203.876 158.91 203.876 158.343C203.876 157.776 203.418 157.317 202.853 157.317C202.288 157.317 201.83 157.776 201.83 158.343C201.83 158.91 202.288 159.369 202.853 159.369Z" fill="#03183F"/>
<path d="M206.336 159.284C206.891 159.284 207.341 158.833 207.341 158.276C207.341 157.72 206.891 157.268 206.336 157.268C205.781 157.268 205.331 157.72 205.331 158.276C205.331 158.833 205.781 159.284 206.336 159.284Z" fill="#03183F"/>
<path d="M201.319 156.804C201.883 156.804 202.341 156.345 202.341 155.778C202.341 155.212 201.883 154.753 201.319 154.753C200.754 154.753 200.296 155.212 200.296 155.778C200.296 156.345 200.754 156.804 201.319 156.804Z" fill="#03183F"/>
<path d="M204.899 156.804C205.464 156.804 205.922 156.345 205.922 155.778C205.922 155.212 205.464 154.753 204.899 154.753C204.334 154.753 203.876 155.212 203.876 155.778C203.876 156.345 204.334 156.804 204.899 156.804Z" fill="#03183F"/>
<path d="M207.842 156.766C208.397 156.766 208.847 156.315 208.847 155.758C208.847 155.201 208.397 154.75 207.842 154.75C207.287 154.75 206.837 155.201 206.837 155.758C206.837 156.315 207.287 156.766 207.842 156.766Z" fill="#03183F"/>
<path d="M163.344 122.059C162.871 122.059 162.417 122.248 162.083 122.583C161.748 122.919 161.56 123.373 161.56 123.848V129.234C161.56 129.708 161.748 130.163 162.083 130.499C162.417 130.834 162.871 131.023 163.344 131.023H164.622C165.096 131.023 165.549 130.834 165.883 130.499C166.218 130.163 166.406 129.708 166.407 129.234V123.848C166.406 123.373 166.218 122.919 165.883 122.583C165.549 122.248 165.096 122.059 164.622 122.059H163.344Z" fill="#03183F"/>
<path d="M238.014 122.059C237.541 122.059 237.088 122.248 236.753 122.583C236.419 122.919 236.231 123.373 236.23 123.848V129.234C236.231 129.708 236.419 130.163 236.753 130.499C237.088 130.834 237.541 131.023 238.014 131.023H239.293C239.766 131.023 240.22 130.834 240.554 130.499C240.889 130.163 241.077 129.708 241.077 129.234V123.848C241.077 123.373 240.889 122.919 240.554 122.583C240.22 122.248 239.766 122.059 239.293 122.059H238.014Z" fill="#03183F"/>
<path d="M259.367 137.569C262.757 137.569 265.505 134.813 265.505 131.414C265.505 128.014 262.757 125.258 259.367 125.258C255.978 125.258 253.23 128.014 253.23 131.414C253.23 134.813 255.978 137.569 259.367 137.569Z" fill="#E6E6E6"/>
<path d="M246.325 150.649C249.715 150.649 252.463 147.893 252.463 144.494C252.463 141.094 249.715 138.338 246.325 138.338C242.936 138.338 240.188 141.094 240.188 144.494C240.188 147.893 242.936 150.649 246.325 150.649Z" fill="#E6E6E6"/>
<path d="M272.92 149.88C276.31 149.88 279.058 147.124 279.058 143.724C279.058 140.325 276.31 137.569 272.92 137.569C269.531 137.569 266.783 140.325 266.783 143.724C266.783 147.124 269.531 149.88 272.92 149.88Z" fill="#E6E6E6"/>
<path d="M260.39 163.472C263.78 163.472 266.527 160.717 266.527 157.317C266.527 153.918 263.78 151.162 260.39 151.162C257.001 151.162 254.253 153.918 254.253 157.317C254.253 160.717 257.001 163.472 260.39 163.472Z" fill="#E6E6E6"/>
<path d="M174.915 118.468C173.544 118.47 172.229 119.017 171.259 119.989C170.29 120.962 169.744 122.28 169.743 123.656V146.61C169.744 147.985 170.29 149.303 171.259 150.276C172.229 151.249 173.544 151.796 174.915 151.797H227.466C228.837 151.796 230.152 151.249 231.122 150.276C232.091 149.303 232.637 147.985 232.638 146.61V123.656C232.637 122.28 232.091 120.962 231.122 119.989C230.152 119.017 228.837 118.47 227.466 118.468H174.915Z" fill="#03183F"/>
<path d="M263.537 134.235H255.214L259.232 127.327L263.537 134.235ZM256.105 133.722H262.614L259.247 128.319L256.105 133.722Z" fill="#03183F"/>
<path d="M249.778 147.571H242.873V141.416H249.778V147.571ZM243.385 147.058H249.266V141.929H243.385V147.058Z" fill="#03183F"/>
<path d="M272.921 147.571C272.162 147.571 271.42 147.346 270.789 146.923C270.159 146.5 269.667 145.899 269.377 145.196C269.086 144.494 269.01 143.72 269.158 142.974C269.306 142.228 269.672 141.542 270.208 141.004C270.745 140.466 271.428 140.1 272.172 139.951C272.916 139.803 273.688 139.879 274.388 140.17C275.089 140.461 275.688 140.954 276.11 141.587C276.531 142.22 276.756 142.963 276.756 143.724C276.755 144.744 276.351 145.722 275.632 146.443C274.913 147.164 273.938 147.57 272.921 147.571ZM272.921 140.39C272.263 140.39 271.62 140.586 271.074 140.952C270.527 141.318 270.101 141.839 269.849 142.448C269.598 143.058 269.532 143.728 269.66 144.375C269.788 145.021 270.105 145.616 270.57 146.082C271.035 146.548 271.627 146.866 272.272 146.994C272.917 147.123 273.585 147.057 274.193 146.805C274.8 146.552 275.319 146.125 275.685 145.577C276.05 145.028 276.245 144.384 276.245 143.724C276.244 142.84 275.893 141.993 275.27 141.368C274.647 140.743 273.802 140.391 272.921 140.39Z" fill="#03183F"/>
<path d="M257.63 154.25L257.269 154.613L263.022 160.384L263.384 160.021L257.63 154.25Z" fill="#03183F"/>
<path d="M263.154 154.246L257.273 159.889L257.627 160.26L263.508 154.617L263.154 154.246Z" fill="#03183F"/>
<path d="M54.3577 59.8626C40.3953 63.7232 25.1059 66.6294 19.6274 62.1208C22.6269 57.1127 24.357 52.1765 24.5037 47.33C24.5368 45.1125 25.4323 42.9957 26.9993 41.4309C28.0367 40.4258 29.2889 39.671 30.6608 39.2239C32.0326 38.7768 33.488 38.6492 34.9164 38.8508L38.54 39.3608C38.6619 39.3779 38.7833 39.3974 38.904 39.4192C40.6432 39.7497 42.2357 40.6181 43.4577 41.9026C44.6797 43.1871 45.47 44.8231 45.7175 46.581C46.481 51.8363 49.0482 56.3859 54.3577 59.8626Z" fill="#03183F"/>
<path d="M67.826 109.721L73.2541 110.843C73.6687 110.929 74.059 111.106 74.3968 111.362C74.7346 111.618 75.0113 111.946 75.2068 112.322C75.4024 112.699 75.5119 113.115 75.5274 113.539C75.5429 113.963 75.464 114.385 75.2964 114.775V114.775C75.1345 115.152 74.8936 115.489 74.5902 115.765C74.2867 116.04 73.9278 116.246 73.5377 116.37C73.1477 116.493 72.7357 116.531 72.3297 116.481C71.9237 116.431 71.5332 116.294 71.1847 116.079L62.8817 110.957L48.7788 77.707L56.0834 75.588L67.826 109.721Z" fill="#A0616A"/>
<path d="M29.1586 153.351L25.0486 154.55L21.9376 148.106L25.1012 146.453L29.1586 153.351Z" fill="#A0616A"/>
<path d="M27.0703 180.96L22.0275 179.621L22.817 170.932L27.1567 171.2L27.0703 180.96Z" fill="#A0616A"/>
<path d="M27.5962 147.328L22.2552 150.853L1.71332 127.549C1.26775 127.044 0.938712 126.446 0.749629 125.799C0.560546 125.151 0.516062 124.47 0.619335 123.803C0.722608 123.136 0.971103 122.501 1.34714 121.941C1.72318 121.382 2.21753 120.912 2.79501 120.566L28.3851 105.231L32.3046 116.523L18.9797 129.064L27.5962 147.328Z" fill="#03183F"/>
<path d="M32.094 159.526C32.0807 159.543 32.0672 159.561 32.0538 159.578C31.7124 161.583 31.1129 163.411 29.7741 164.735C29.3771 165.633 28.6644 166.352 27.7719 166.756C26.8795 167.161 25.8698 167.221 24.9358 166.926V166.926C24.0549 166.648 23.2977 166.072 22.7938 165.295C22.2899 164.519 22.0705 163.591 22.1731 162.671L23.1712 153.724C25.5652 153.172 27.3912 151.807 28.3153 149.15L30.6421 150.74C31.3306 151.206 31.9171 151.809 32.3659 152.51C32.8146 153.212 33.1161 153.997 33.2519 154.82C33.3878 155.642 33.3552 156.483 33.1561 157.292C32.9571 158.101 32.5957 158.861 32.094 159.526V159.526Z" fill="#03183F"/>
<path d="M34.626 57.9467C39.1661 57.9467 42.8466 54.2554 42.8466 49.7021C42.8466 45.1487 39.1661 41.4575 34.626 41.4575C30.0859 41.4575 26.4055 45.1487 26.4055 49.7021C26.4055 54.2554 30.0859 57.9467 34.626 57.9467Z" fill="#A0616A"/>
<path d="M41.745 62.8819L28.7853 73.6464L27.776 69.2154L30.038 65.7572C30.6658 62.3643 30.2605 58.6228 29.1818 54.6541L37.6371 54.6619C38.0021 57.869 39.247 60.6669 41.745 62.8819Z" fill="#A0616A"/>
<path d="M45.3937 91.1183L27.8981 96.4633L26.5369 90.2225C23.2582 85.8073 21.8329 81.7773 23.9779 78.4895L22.8985 73.5402C25.995 71.095 28.43 68.5933 29.7671 65.9975L40.5315 61.7791L48.4448 62.2674L50.7816 70.1211L45.3937 91.1183Z" fill="#9C0332"/>
<path d="M57.8231 76.4662C54.0938 76.4266 50.4439 77.5482 47.3768 79.6764L48.4449 62.2674C49.529 62.4126 50.5567 62.8383 51.4269 63.5027C52.2971 64.1672 52.9799 65.0474 53.408 66.0568L57.8231 76.4662Z" fill="#9C0332"/>
<path d="M27.5414 173.28L21.9883 171.909L22.8057 124.587L30.2624 116.397L28.5932 106.015L27.5132 94.3836L45.7275 89.8539C51.884 101.065 55.6051 111.259 50.1733 117.626L27.5414 173.28Z" fill="#03183F"/>
<path d="M26.266 189.257C26.2411 189.267 26.2161 189.277 26.1912 189.286C24.5787 191.164 22.8071 192.695 20.5797 193.234C19.6026 193.921 18.4074 194.223 17.2223 194.083C16.0372 193.942 14.9451 193.369 14.1547 192.472V192.472C13.4092 191.627 12.9799 190.547 12.9401 189.419C12.9003 188.291 13.2526 187.184 13.9366 186.288L20.5849 177.576C23.4304 178.508 26.1925 178.233 28.8221 176.042L30.2555 179.168C30.6821 180.089 30.917 181.088 30.946 182.103C30.9749 183.119 30.7973 184.129 30.424 185.073C30.0507 186.017 29.4894 186.875 28.7745 187.595C28.0596 188.314 27.2061 188.88 26.266 189.257V189.257Z" fill="#03183F"/>
<path d="M5.98054 115.413L1.1064 119.598C0.701932 119.945 0.391429 120.389 0.203684 120.889C0.0159389 121.389 -0.0429746 121.928 0.0324034 122.457C0.107781 122.985 0.315013 123.486 0.634886 123.913C0.95476 124.34 1.37692 124.679 1.86224 124.899V124.899C2.59285 125.23 3.42141 125.27 4.18043 125.011C4.93946 124.753 5.57231 124.215 5.95107 123.506L9.47576 116.913L25.6398 87.3295L19.5605 86.1834L5.98054 115.413Z" fill="#A0616A"/>
<path d="M26.6138 88.1605C23.4566 87.2047 20.4992 86.6418 18.2056 87.3847C18.6864 81.4178 19.6773 76.0874 22.8985 73.5402L27.4776 74.0797L26.6138 88.1605Z" fill="#9C0332"/>
<path d="M43.803 47.7903L26.2208 46.7053L26.4371 43.1786C32.5747 39.028 38.4354 39.3897 44.0194 44.2636L43.803 47.7903Z" fill="#03183F"/>
</g>
<defs>
<clipPath id="clip0_700_146">
<rect width="344" height="236" fill="white" transform="translate(0 0.603027)"/>
</clipPath>
</defs>
</svg>
