<svg width="485" height="334" viewBox="0 0 485 334" fill="none" xmlns="http://www.w3.org/2000/svg">
<g clip-path="url(#clip0_700_26)">
<path d="M416.377 139.54C423.062 146.577 430.52 147.7 438.752 142.909C435.298 137.353 434.475 131.309 435.396 124.942H419.36C420.071 130.537 419.88 135.746 416.377 139.54Z" fill="#FFB8B8"/>
<path d="M442.854 323.699L451.431 319.208L455.16 271.671V246.592L435.396 246.218L440.989 271.297L442.854 323.699Z" fill="#FFB8B8"/>
<path d="M417.992 323.699L409.415 319.208L405.686 271.671V246.592L425.45 246.218L419.856 271.297L417.992 323.699Z" fill="#FFB8B8"/>
<path d="M404.817 251.832L425.7 249.961L429.056 230.871L433.158 249.587L455.906 248.089C456.403 238.994 455.141 229.634 452.177 220.016L402.206 218.893L404.817 251.832Z" fill="#03183F"/>
<path d="M383.111 180.14L357.991 160.724C357.73 160.523 357.443 160.358 357.138 160.233L353.487 158.742C350.555 157.545 344.969 153.561 347.693 149.46C349.89 146.153 358.297 152.077 359.331 154.271C359.658 154.962 360.194 155.531 360.863 155.898L365.968 158.706C366.092 158.774 366.22 158.835 366.351 158.888L385.787 166.795C386.326 167.015 386.909 167.102 387.488 167.049C388.067 166.997 388.625 166.806 389.116 166.494L392.639 164.251C393.141 163.932 393.712 163.74 394.304 163.693C394.896 163.645 395.49 163.743 396.036 163.978C396.581 164.213 397.062 164.577 397.435 165.041C397.809 165.504 398.065 166.051 398.18 166.636L399.344 172.535C399.512 173.385 399.375 174.266 398.957 175.024C398.539 175.781 397.868 176.366 397.062 176.675L386.641 180.661C386.058 180.885 385.427 180.954 384.808 180.863C384.19 180.772 383.606 180.523 383.111 180.14V180.14Z" fill="#FFB8B8"/>
<path d="M387.777 165.994C394.732 164.122 394.002 173.875 399.308 178.67L409.741 170.403L403.698 141.037C402.077 141.502 400.585 142.339 399.342 143.482C398.098 144.625 397.137 146.043 396.533 147.623L387.777 165.994Z" fill="#9C0332"/>
<path d="M400.715 220.765H453.296C444.786 197.747 445.615 174.074 452.86 149.95C452.982 149.549 452.961 149.118 452.8 148.732C452.639 148.346 452.349 148.028 451.98 147.833L436.887 139.915C430.963 143.784 424.596 142.595 417.869 137.294L401.46 141.786C405.927 168.713 406.054 195.087 400.715 220.765Z" fill="#9C0332"/>
<path d="M413.862 332.491L391.95 333.423C390.996 333.464 390.06 333.149 389.324 332.539C388.587 331.928 388.102 331.066 387.96 330.118V330.118C387.818 329.161 388.036 328.184 388.574 327.381C389.111 326.577 389.928 326.003 390.865 325.773L394.582 324.858L409.19 316.36C411.354 318.609 414.334 320.511 417.977 322.131L418.02 328.106C418.028 329.235 417.599 330.323 416.824 331.141C416.048 331.959 414.986 332.443 413.862 332.491V332.491Z" fill="#03183F"/>
<path d="M484.783 333.5H0.176254V332.298H485L484.783 333.5Z" fill="#3F3D56" fill-opacity="0.4"/>
<path d="M446.801 332.157L468.714 333.089C469.668 333.13 470.604 332.815 471.34 332.204C472.077 331.594 472.562 330.732 472.704 329.784V329.784C472.846 328.827 472.628 327.85 472.09 327.047C471.553 326.243 470.736 325.669 469.799 325.439L466.082 324.524L451.474 316.026C449.31 318.275 446.33 320.177 442.687 321.797L442.644 327.772C442.636 328.901 443.065 329.989 443.84 330.807C444.616 331.625 445.677 332.109 446.801 332.157V332.157Z" fill="#03183F"/>
<path d="M425.7 131.68C432.291 131.68 437.633 126.317 437.633 119.702C437.633 113.087 432.291 107.724 425.7 107.724C419.109 107.724 413.767 113.087 413.767 119.702C413.767 126.317 419.109 131.68 425.7 131.68Z" fill="#FFB8B8"/>
<path d="M444.346 217.022L440.403 224.716C440.056 225.395 439.855 226.14 439.814 226.903C439.774 227.665 439.895 228.428 440.169 229.14C440.443 229.852 440.864 230.498 441.404 231.036C441.945 231.573 442.592 231.989 443.305 232.257V232.257C444.058 232.541 444.866 232.652 445.668 232.581C446.47 232.511 447.246 232.261 447.939 231.85C448.633 231.438 449.225 230.877 449.674 230.206C450.122 229.535 450.416 228.771 450.532 227.972L452.177 216.648L458.144 188.2L457.771 173.977H445.838C449.908 184.556 447.889 200.16 444.346 217.022Z" fill="#FFB8B8"/>
<path d="M443.973 175.474H460.008L457.681 157.822C457.365 155.428 456.457 153.152 455.04 151.201C453.622 149.25 451.741 147.686 449.567 146.652L443.973 175.474Z" fill="#9C0332"/>
<path d="M438.387 113.104C438.625 111.504 438.525 109.872 438.093 108.313C437.661 106.755 436.906 105.305 435.879 104.058C433.843 101.64 430.43 99.6609 424.768 100.595C412.415 102.632 408.853 112.954 410.063 115.55C411.273 118.146 414.983 124.164 414.983 124.164C414.983 124.164 412.26 118.207 415.215 116.994C418.17 115.782 429.605 111.005 433.597 113.157C434.726 113.726 435.686 114.586 436.377 115.649C437.068 116.711 437.466 117.939 437.531 119.206L438.387 113.104Z" fill="#03183F"/>
<path d="M234.139 63.2548L229.341 65.6983C223.815 54.776 216.493 44.867 207.685 36.3878C164.426 -5.35464 95.3993 -3.98991 53.812 39.43C12.2248 82.8499 13.5844 152.134 56.8429 193.877C65.0762 201.838 74.5085 208.445 84.7923 213.457L82.4453 218.316C66.1449 210.372 51.9617 198.649 41.0677 184.115C30.1737 169.581 22.8815 152.653 19.7936 134.731C16.7058 116.809 17.9109 98.4071 23.3094 81.045C28.708 63.6829 38.145 47.8594 50.8407 34.8818C63.5364 21.9042 79.1264 12.1451 96.3226 6.41078C113.519 0.676456 131.828 -0.868477 149.736 1.90363C167.645 4.67573 184.64 11.6853 199.316 22.3532C213.992 33.0211 225.928 47.041 234.139 63.2548V63.2548Z" fill="#E6E6E6"/>
<path d="M71.8174 163.721C64.7602 171.089 60.9081 180.97 61.1087 191.189C61.3092 201.407 65.5459 211.128 72.8867 218.211C80.2275 225.295 90.0711 229.161 100.252 228.96C110.433 228.759 120.117 224.506 127.174 217.138L133.784 210.237L78.4273 156.82L71.8174 163.721Z" fill="#E6E6E6"/>
<path d="M74.7183 152.9C73.1474 154.544 72.2903 156.746 72.335 159.024C72.3797 161.301 73.3225 163.467 74.9566 165.048L125.73 214.042C127.366 215.621 129.561 216.483 131.831 216.438C134.1 216.393 136.259 215.445 137.832 213.802C139.406 212.16 140.264 209.957 140.22 207.679C140.175 205.401 139.23 203.234 137.594 201.655L86.8206 152.661C85.1829 151.084 82.989 150.224 80.7201 150.269C78.4513 150.314 76.2928 151.26 74.7183 152.9Z" fill="#03183F"/>
<path d="M227.001 112.912L233.611 106.011C240.668 98.6427 244.52 88.7624 244.32 78.5435C244.119 68.3246 239.883 58.6042 232.542 51.5206C228.907 48.0132 224.619 45.2588 219.924 43.4145C215.229 41.5703 210.218 40.6723 205.176 40.772C194.996 40.9733 185.311 45.2258 178.254 52.5939L171.644 59.4952L227.001 112.912Z" fill="#E6E6E6"/>
<path d="M167.596 55.9295C166.025 57.5734 165.168 59.7755 165.213 62.0528C165.258 64.3301 166.2 66.4966 167.835 68.0771L218.608 117.071C220.245 118.648 222.438 119.509 224.707 119.463C226.976 119.417 229.133 118.469 230.706 116.827C232.278 115.186 233.137 112.984 233.093 110.707C233.049 108.43 232.106 106.264 230.472 104.684L179.699 55.6903C178.061 54.1135 175.867 53.2533 173.598 53.2981C171.329 53.343 169.171 54.2893 167.596 55.9295V55.9295Z" fill="#03183F"/>
<path d="M189.014 169.153V165.173C189.014 165.173 206.32 155.402 220.381 165.173V168.791L189.014 169.153Z" fill="#03183F"/>
<path d="M346.569 169.153V165.173C346.569 165.173 363.875 155.402 377.936 165.173V168.791L346.569 169.153Z" fill="#03183F"/>
<path d="M240.932 168.792H223.986C223.986 168.792 219.66 163.725 205.239 164.087C190.817 164.449 187.933 168.792 187.933 168.792C187.933 168.792 173.692 178.381 170.447 190.324C170.447 190.324 152.961 242.977 152.6 284.232C152.24 325.487 168.103 331.277 176.396 332.362C184.688 333.448 199.47 332.001 213.891 295.45L220.021 274.099C220.021 274.099 221.102 261.433 234.082 269.395C247.061 277.356 258.598 265.052 258.598 265.052H307.271C307.271 265.052 323.495 275.185 338.277 267.224C338.277 267.224 344.045 259.624 349.453 285.318C349.453 285.318 366.038 338.153 391.636 332.724C417.234 327.296 414.35 283.146 414.35 283.146C414.35 283.146 410.925 215.655 396.864 191.771C396.864 191.771 383.344 166.982 374.33 165.896C374.33 165.896 354.861 162.278 347.29 165.535L342.964 169.153L240.932 168.792Z" fill="#E6E6E6"/>
<path d="M201.633 235.74C218.957 235.74 233 221.644 233 204.256C233 186.868 218.957 172.772 201.633 172.772C184.31 172.772 170.266 186.868 170.266 204.256C170.266 221.644 184.31 235.74 201.633 235.74Z" fill="#03183F"/>
<path d="M365.317 235.74C382.64 235.74 396.684 221.644 396.684 204.256C396.684 186.868 382.64 172.772 365.317 172.772C347.994 172.772 333.95 186.868 333.95 204.256C333.95 221.644 347.994 235.74 365.317 235.74Z" fill="#03183F"/>
<path d="M207.099 197.235L202.917 200.948C202.563 201.261 202.107 201.434 201.635 201.434C201.163 201.434 200.707 201.261 200.353 200.948L196.164 197.235C195.959 197.054 195.795 196.832 195.682 196.582C195.568 196.333 195.509 196.062 195.508 195.788V185.572C195.509 185.056 195.713 184.562 196.077 184.198C196.441 183.833 196.934 183.629 197.447 183.629H205.83C206.343 183.628 206.836 183.832 207.2 184.195C207.564 184.559 207.769 185.053 207.77 185.568V195.781C207.767 196.057 207.706 196.33 207.591 196.581C207.475 196.832 207.307 197.055 207.099 197.235Z" fill="#E6E6E6"/>
<path d="M207.099 211.273L202.917 207.564C202.563 207.251 202.107 207.078 201.635 207.078C201.163 207.078 200.707 207.251 200.353 207.564L196.164 211.277C195.959 211.458 195.795 211.68 195.682 211.93C195.568 212.179 195.509 212.45 195.508 212.724V222.929C195.507 223.445 195.71 223.939 196.072 224.304C196.435 224.669 196.927 224.875 197.44 224.876H205.83C206.343 224.877 206.836 224.673 207.2 224.309C207.564 223.946 207.769 223.452 207.77 222.936V212.728C207.767 212.451 207.706 212.179 207.591 211.928C207.475 211.677 207.307 211.454 207.099 211.273V211.273Z" fill="#E6E6E6"/>
<path d="M194.642 209.749L198.341 205.544C198.653 205.189 198.825 204.731 198.825 204.258C198.825 203.784 198.653 203.327 198.341 202.971L194.642 198.766C194.462 198.561 194.24 198.396 193.991 198.282C193.743 198.169 193.473 198.109 193.2 198.108H183.033C182.519 198.109 182.027 198.314 181.664 198.679C181.301 199.044 181.097 199.539 181.097 200.055V208.468C181.096 208.984 181.299 209.478 181.661 209.843C182.024 210.209 182.516 210.414 183.029 210.415H193.204C193.477 210.412 193.746 210.351 193.994 210.237C194.242 210.122 194.463 209.956 194.642 209.749V209.749Z" fill="#E6E6E6"/>
<path d="M208.628 209.749L204.936 205.541C204.623 205.186 204.451 204.728 204.451 204.254C204.451 203.78 204.623 203.323 204.936 202.968L208.635 198.763C208.815 198.557 209.037 198.392 209.286 198.278C209.534 198.165 209.804 198.106 210.077 198.104H220.244C220.758 198.103 221.25 198.307 221.614 198.671C221.978 199.034 222.183 199.528 222.184 200.044V208.465C222.185 208.98 221.982 209.475 221.619 209.84C221.257 210.205 220.765 210.411 220.251 210.412H210.081C209.805 210.411 209.534 210.352 209.283 210.238C209.032 210.124 208.809 209.957 208.628 209.749V209.749Z" fill="#E6E6E6"/>
<path d="M244.177 261.433C256.721 261.433 266.89 251.226 266.89 238.635C266.89 226.044 256.721 215.836 244.177 215.836C231.632 215.836 221.463 226.044 221.463 238.635C221.463 251.226 231.632 261.433 244.177 261.433Z" fill="#03183F"/>
<path d="M322.774 261.433C335.318 261.433 345.488 251.226 345.488 238.635C345.488 226.044 335.318 215.836 322.774 215.836C310.229 215.836 300.06 226.044 300.06 238.635C300.06 251.226 310.229 261.433 322.774 261.433Z" fill="#03183F"/>
<path d="M244.177 253.834C252.54 253.834 259.319 247.029 259.319 238.635C259.319 230.241 252.54 223.436 244.177 223.436C235.814 223.436 229.034 230.241 229.034 238.635C229.034 247.029 235.814 253.834 244.177 253.834Z" fill="#E6E6E6"/>
<path d="M244.177 249.129C242.109 249.129 240.087 248.514 238.368 247.361C236.648 246.208 235.308 244.569 234.517 242.651C233.726 240.733 233.519 238.623 233.922 236.587C234.325 234.552 235.321 232.682 236.783 231.214C238.246 229.746 240.109 228.747 242.137 228.342C244.165 227.937 246.267 228.145 248.178 228.939C250.088 229.733 251.721 231.078 252.87 232.804C254.019 234.53 254.632 236.559 254.632 238.635C254.629 241.417 253.526 244.085 251.566 246.052C249.606 248.02 246.949 249.126 244.177 249.129V249.129ZM244.177 228.864C242.251 228.864 240.369 229.437 238.768 230.511C237.168 231.584 235.92 233.11 235.183 234.896C234.446 236.681 234.254 238.646 234.629 240.541C235.005 242.436 235.932 244.177 237.293 245.544C238.655 246.91 240.389 247.841 242.278 248.218C244.166 248.595 246.123 248.401 247.902 247.662C249.681 246.922 251.201 245.67 252.271 244.063C253.34 242.456 253.911 240.567 253.911 238.635C253.908 236.044 252.882 233.561 251.057 231.729C249.232 229.897 246.758 228.867 244.177 228.864V228.864Z" fill="#03183F"/>
<path d="M322.774 253.834C331.137 253.834 337.916 247.029 337.916 238.635C337.916 230.241 331.137 223.436 322.774 223.436C314.411 223.436 307.631 230.241 307.631 238.635C307.631 247.029 314.411 253.834 322.774 253.834Z" fill="#E6E6E6"/>
<path d="M322.774 249.129C320.706 249.129 318.684 248.514 316.965 247.361C315.246 246.208 313.905 244.569 313.114 242.651C312.323 240.733 312.116 238.623 312.519 236.587C312.923 234.552 313.918 232.682 315.381 231.214C316.843 229.746 318.706 228.747 320.734 228.342C322.762 227.937 324.864 228.145 326.775 228.939C328.685 229.733 330.318 231.078 331.467 232.804C332.616 234.53 333.229 236.559 333.229 238.635C333.226 241.417 332.124 244.085 330.163 246.052C328.203 248.019 325.546 249.126 322.774 249.129ZM322.774 228.864C320.848 228.864 318.966 229.437 317.366 230.511C315.765 231.584 314.517 233.11 313.78 234.896C313.043 236.681 312.851 238.646 313.226 240.541C313.602 242.436 314.529 244.177 315.89 245.544C317.252 246.91 318.986 247.841 320.875 248.218C322.763 248.595 324.72 248.401 326.499 247.662C328.278 246.922 329.798 245.67 330.868 244.063C331.937 242.456 332.508 240.567 332.508 238.635C332.505 236.044 331.479 233.561 329.654 231.729C327.829 229.897 325.355 228.867 322.774 228.864V228.864Z" fill="#03183F"/>
<path d="M284.196 247.682C287.78 247.682 290.686 244.765 290.686 241.168C290.686 237.57 287.78 234.654 284.196 234.654C280.612 234.654 277.707 237.57 277.707 241.168C277.707 244.765 280.612 247.682 284.196 247.682Z" fill="#03183F"/>
<path d="M274.278 220.848C275.06 220.848 275.695 220.212 275.695 219.426C275.695 218.641 275.06 218.004 274.278 218.004C273.495 218.004 272.861 218.641 272.861 219.426C272.861 220.212 273.495 220.848 274.278 220.848Z" fill="#03183F"/>
<path d="M279.585 220.848C280.367 220.848 281.002 220.212 281.002 219.426C281.002 218.641 280.367 218.004 279.585 218.004C278.802 218.004 278.168 218.641 278.168 219.426C278.168 220.212 278.802 220.848 279.585 220.848Z" fill="#03183F"/>
<path d="M278.878 227.597C279.661 227.597 280.295 226.961 280.295 226.175C280.295 225.39 279.661 224.753 278.878 224.753C278.096 224.753 277.461 225.39 277.461 226.175C277.461 226.961 278.096 227.597 278.878 227.597Z" fill="#03183F"/>
<path d="M283.836 227.778C284.632 227.778 285.278 227.13 285.278 226.331C285.278 225.531 284.632 224.883 283.836 224.883C283.039 224.883 282.394 225.531 282.394 226.331C282.394 227.13 283.039 227.778 283.836 227.778Z" fill="#03183F"/>
<path d="M288.786 227.597C289.568 227.597 290.203 226.961 290.203 226.175C290.203 225.39 289.568 224.753 288.786 224.753C288.003 224.753 287.369 225.39 287.369 226.175C287.369 226.961 288.003 227.597 288.786 227.597Z" fill="#03183F"/>
<path d="M276.755 224.402C277.537 224.402 278.172 223.765 278.172 222.98C278.172 222.194 277.537 221.558 276.755 221.558C275.972 221.558 275.338 222.194 275.338 222.98C275.338 223.765 275.972 224.402 276.755 224.402Z" fill="#03183F"/>
<path d="M281.312 224.521C282.108 224.521 282.754 223.873 282.754 223.074C282.754 222.274 282.108 221.626 281.312 221.626C280.515 221.626 279.87 222.274 279.87 223.074C279.87 223.873 280.515 224.521 281.312 224.521Z" fill="#03183F"/>
<path d="M285.999 224.521C286.795 224.521 287.441 223.873 287.441 223.074C287.441 222.274 286.795 221.626 285.999 221.626C285.202 221.626 284.557 222.274 284.557 223.074C284.557 223.873 285.202 224.521 285.999 224.521Z" fill="#03183F"/>
<path d="M290.909 224.402C291.692 224.402 292.326 223.765 292.326 222.98C292.326 222.194 291.692 221.558 290.909 221.558C290.127 221.558 289.493 222.194 289.493 222.98C289.493 223.765 290.127 224.402 290.909 224.402Z" fill="#03183F"/>
<path d="M283.836 220.903C284.632 220.903 285.278 220.254 285.278 219.455C285.278 218.656 284.632 218.008 283.836 218.008C283.039 218.008 282.394 218.656 282.394 219.455C282.394 220.254 283.039 220.903 283.836 220.903Z" fill="#03183F"/>
<path d="M288.883 220.903C289.68 220.903 290.325 220.254 290.325 219.455C290.325 218.656 289.68 218.008 288.883 218.008C288.087 218.008 287.441 218.656 287.441 219.455C287.441 220.254 288.087 220.903 288.883 220.903Z" fill="#03183F"/>
<path d="M293.033 220.848C293.815 220.848 294.45 220.212 294.45 219.426C294.45 218.641 293.815 218.004 293.033 218.004C292.25 218.004 291.616 218.641 291.616 219.426C291.616 220.212 292.25 220.848 293.033 220.848Z" fill="#03183F"/>
<path d="M230.296 171.876C229.629 171.877 228.99 172.143 228.518 172.616C228.046 173.089 227.781 173.731 227.78 174.401V182C227.781 182.67 228.046 183.312 228.518 183.785C228.99 184.258 229.629 184.524 230.296 184.525H232.099C232.765 184.524 233.405 184.258 233.876 183.785C234.348 183.312 234.613 182.67 234.614 182V174.401C234.613 173.731 234.348 173.089 233.876 172.616C233.405 172.143 232.765 171.877 232.099 171.876H230.296Z" fill="#03183F"/>
<path d="M335.573 171.876C334.906 171.876 334.266 172.143 333.795 172.616C333.323 173.089 333.058 173.731 333.057 174.401V182C333.058 182.67 333.323 183.312 333.795 183.785C334.266 184.258 334.906 184.524 335.573 184.525H337.375C338.042 184.524 338.682 184.258 339.153 183.785C339.625 183.312 339.89 182.67 339.891 182V174.401C339.89 173.731 339.625 173.089 339.153 172.616C338.682 172.143 338.042 171.876 337.375 171.876H335.573Z" fill="#03183F"/>
<path d="M365.678 193.761C370.457 193.761 374.331 189.873 374.331 185.076C374.331 180.279 370.457 176.391 365.678 176.391C360.899 176.391 357.025 180.279 357.025 185.076C357.025 189.873 360.899 193.761 365.678 193.761Z" fill="#E6E6E6"/>
<path d="M347.29 212.217C352.069 212.217 355.943 208.329 355.943 203.532C355.943 198.736 352.069 194.847 347.29 194.847C342.511 194.847 338.637 198.736 338.637 203.532C338.637 208.329 342.511 212.217 347.29 212.217Z" fill="#E6E6E6"/>
<path d="M384.786 211.132C389.565 211.132 393.439 207.243 393.439 202.447C393.439 197.65 389.565 193.761 384.786 193.761C380.007 193.761 376.133 197.65 376.133 202.447C376.133 207.243 380.007 211.132 384.786 211.132Z" fill="#E6E6E6"/>
<path d="M367.12 230.312C371.899 230.312 375.773 226.423 375.773 221.626C375.773 216.83 371.899 212.941 367.12 212.941C362.341 212.941 358.467 216.83 358.467 221.626C358.467 226.423 362.341 230.312 367.12 230.312Z" fill="#E6E6E6"/>
<path d="M246.61 166.809C244.677 166.812 242.823 167.584 241.456 168.956C240.089 170.328 239.32 172.189 239.318 174.129V206.518C239.32 208.458 240.089 210.319 241.456 211.691C242.823 213.063 244.677 213.835 246.61 213.838H320.7C322.634 213.835 324.487 213.063 325.855 211.691C327.222 210.319 327.991 208.458 327.993 206.518V174.129C327.991 172.189 327.222 170.328 325.855 168.956C324.487 167.584 322.634 166.812 320.7 166.809H246.61Z" fill="#03183F"/>
<path d="M371.556 189.057H359.822L365.487 179.31L371.556 189.057ZM361.078 188.333H370.255L365.508 180.71L361.078 188.333Z" fill="#03183F"/>
<path d="M352.158 207.875H342.423V199.19H352.158V207.875ZM343.144 207.151H351.437V199.913H343.144V207.151Z" fill="#03183F"/>
<path d="M384.786 207.875C383.717 207.875 382.671 207.556 381.782 206.96C380.892 206.363 380.199 205.516 379.79 204.524C379.38 203.532 379.273 202.441 379.482 201.388C379.691 200.335 380.206 199.367 380.962 198.608C381.718 197.849 382.682 197.332 383.731 197.123C384.78 196.913 385.867 197.021 386.856 197.431C387.844 197.842 388.689 198.538 389.283 199.431C389.877 200.323 390.194 201.373 390.194 202.446C390.193 203.886 389.622 205.265 388.608 206.283C387.595 207.301 386.22 207.873 384.786 207.875ZM384.786 197.742C383.859 197.742 382.953 198.018 382.182 198.535C381.411 199.052 380.811 199.787 380.456 200.646C380.101 201.506 380.008 202.452 380.189 203.364C380.37 204.277 380.816 205.115 381.472 205.773C382.127 206.431 382.963 206.879 383.872 207.061C384.781 207.242 385.723 207.149 386.58 206.793C387.436 206.437 388.168 205.834 388.683 205.06C389.198 204.286 389.473 203.377 389.473 202.446C389.472 201.199 388.977 200.003 388.099 199.121C387.22 198.24 386.029 197.743 384.786 197.742Z" fill="#03183F"/>
<path d="M363.229 217.299L362.719 217.811L370.831 225.953L371.341 225.442L363.229 217.299Z" fill="#03183F"/>
<path d="M371.016 217.293L362.725 225.256L363.223 225.779L371.515 217.816L371.016 217.293Z" fill="#03183F"/>
<path d="M76.6379 84.1163C56.9526 89.5636 35.3964 93.6643 27.6724 87.3026C31.9013 80.2361 34.3405 73.2711 34.5474 66.4326C34.594 63.3037 35.8566 60.3168 38.0659 58.1089C39.5285 56.6906 41.2939 55.6256 43.2281 54.9947C45.1622 54.3639 47.2141 54.1838 49.228 54.4682L54.3368 55.1878C54.5088 55.212 54.6799 55.2395 54.8501 55.2703C57.3022 55.7366 59.5473 56.962 61.2702 58.7744C62.9931 60.5868 64.1073 62.8953 64.4564 65.3758C65.5327 72.791 69.1522 79.2105 76.6379 84.1163Z" fill="#03183F"/>
<path d="M95.6268 154.467L103.28 156.051C103.864 156.171 104.415 156.422 104.891 156.783C105.367 157.144 105.757 157.607 106.033 158.138C106.309 158.669 106.463 159.256 106.485 159.854C106.507 160.453 106.395 161.049 106.159 161.599V161.599C105.931 162.131 105.591 162.607 105.163 162.995C104.736 163.383 104.229 163.674 103.68 163.849C103.13 164.023 102.549 164.077 101.976 164.006C101.404 163.935 100.853 163.742 100.362 163.439L88.6559 156.212L68.7724 109.295L79.071 106.305L95.6268 154.467Z" fill="#A0616A"/>
<path d="M41.1101 216.03L35.3156 217.722L30.9294 208.629L35.3897 206.296L41.1101 216.03Z" fill="#A0616A"/>
<path d="M38.1659 254.987L31.0562 253.097L32.1692 240.837L38.2878 241.215L38.1659 254.987Z" fill="#A0616A"/>
<path d="M38.9074 207.531L31.3772 212.505L2.41556 179.623C1.78735 178.91 1.32345 178.067 1.05686 177.153C0.790277 176.239 0.72756 175.278 0.873163 174.337C1.01877 173.397 1.36911 172.5 1.89929 171.71C2.42946 170.921 3.12643 170.259 3.94061 169.77L40.0197 148.132L45.5457 164.065L26.7592 181.76L38.9074 207.531Z" fill="#03183F"/>
<path d="M45.2488 224.743C45.23 224.767 45.2111 224.792 45.1921 224.817C44.7108 227.645 43.8656 230.225 41.9779 232.093C41.4183 233.359 40.4134 234.375 39.1552 234.945C37.8969 235.516 36.4734 235.601 35.1565 235.185V235.185C33.9146 234.792 32.8471 233.979 32.1366 232.884C31.4261 231.788 31.1168 230.479 31.2615 229.181L32.6686 216.557C36.044 215.778 38.6183 213.851 39.9213 210.103L43.2017 212.345C44.1725 213.004 44.9994 213.854 45.6321 214.843C46.2647 215.833 46.6898 216.942 46.8814 218.102C47.0729 219.262 47.027 220.449 46.7463 221.591C46.4656 222.733 45.9561 223.805 45.2488 224.743V224.743Z" fill="#03183F"/>
<path d="M48.8186 81.4129C55.2196 81.4129 60.4087 76.2045 60.4087 69.7796C60.4087 63.3547 55.2196 58.1463 48.8186 58.1463C42.4176 58.1463 37.2286 63.3547 37.2286 69.7796C37.2286 76.2045 42.4176 81.4129 48.8186 81.4129Z" fill="#A0616A"/>
<path d="M58.8556 88.3765L40.584 103.565L39.1609 97.3133L42.3501 92.4337C43.2352 87.6462 42.6638 82.3669 41.1429 76.767L53.0639 76.7779C53.5785 81.3033 55.3338 85.2511 58.8556 88.3765Z" fill="#A0616A"/>
<path d="M63.9998 128.219L39.333 135.76L37.414 126.955C32.7913 120.725 30.7818 115.038 33.8061 110.399L32.2842 103.416C36.6499 99.9654 40.083 96.4354 41.9681 92.7727L57.1447 86.8204L68.3016 87.5094L71.5961 98.5912L63.9998 128.219Z" fill="#9C0332"/>
<path d="M81.5239 107.544C76.2659 107.488 71.12 109.071 66.7958 112.074L68.3016 87.5094C69.83 87.7143 71.279 88.3151 72.5059 89.2526C73.7329 90.1901 74.6955 91.4321 75.2991 92.8564L81.5239 107.544Z" fill="#9C0332"/>
<path d="M38.8302 244.149L31.001 242.215L32.1534 175.443L42.6665 163.887L40.3132 149.237L38.7904 132.826L64.4704 126.435C73.1504 142.254 78.3968 156.637 70.7386 165.621L38.8302 244.149Z" fill="#03183F"/>
<path d="M37.032 266.694C36.9968 266.708 36.9617 266.722 36.9265 266.735C34.6531 269.385 32.1553 271.545 29.0149 272.305C27.6374 273.275 25.9523 273.701 24.2814 273.503C22.6105 273.305 21.0709 272.496 19.9564 271.231V271.231C18.9054 270.038 18.3001 268.515 18.244 266.923C18.1879 265.331 18.6845 263.77 19.6489 262.505L29.0222 250.211C33.0341 251.527 36.9283 251.139 40.6358 248.048L42.6568 252.459C43.2582 253.758 43.5894 255.167 43.6302 256.6C43.671 258.032 43.4206 259.458 42.8943 260.79C42.3679 262.123 41.5766 263.333 40.5687 264.348C39.5608 265.363 38.3574 266.162 37.032 266.694V266.694Z" fill="#03183F"/>
<path d="M8.43183 162.498L1.55987 168.404C0.989616 168.894 0.551842 169.52 0.287144 170.226C0.0224452 170.931 -0.060616 171.692 0.0456582 172.437C0.151932 173.183 0.444105 173.89 0.895089 174.493C1.34607 175.095 1.94127 175.574 2.62552 175.884V175.884C3.65559 176.35 4.82377 176.407 5.8939 176.042C6.96403 175.677 7.85628 174.919 8.39029 173.919L13.3597 164.616L36.1491 122.872L27.578 121.255L8.43183 162.498Z" fill="#A0616A"/>
<path d="M37.5223 124.045C33.0711 122.696 28.9015 121.902 25.6678 122.95C26.3457 114.531 27.7427 107.01 32.2842 103.416L38.7402 104.177L37.5223 124.045Z" fill="#9C0332"/>
<path d="M61.7571 67.0821L36.9682 65.5511L37.2733 60.5749C45.9265 54.7183 54.1895 55.2286 62.0622 62.1058L61.7571 67.0821Z" fill="#03183F"/>
</g>
<defs>
<clipPath id="clip0_700_26">
<rect width="485" height="333" fill="white" transform="translate(0 0.5)"/>
</clipPath>
</defs>
</svg>
