<svg width="344" height="232" viewBox="0 0 344 232" fill="none" xmlns="http://www.w3.org/2000/svg">
<g clip-path="url(#clip0_1058_349)">
<path d="M335.215 223.342L331.818 224.798L324.617 212.311L329.631 210.162L335.215 223.342Z" fill="#FFB6B6"/>
<path d="M307.141 226.575L303.449 226.575L301.692 212.248H307.142L307.141 226.575Z" fill="#FFB6B6"/>
<path d="M307.271 230.45L295.915 230.45V230.305C295.915 229.126 296.381 227.995 297.21 227.162C298.039 226.328 299.163 225.86 300.335 225.86H300.336L302.41 224.277L306.28 225.86L307.272 225.86L307.271 230.45Z" fill="#03183F"/>
<path d="M337.281 225.822L326.834 230.3L326.778 230.167C326.318 229.083 326.306 227.859 326.743 226.765C327.181 225.671 328.033 224.797 329.111 224.334L329.111 224.334L330.402 222.06L334.58 221.99L335.492 221.599L337.281 225.822Z" fill="#03183F"/>
<path d="M303.519 141.783L297.907 176.157L299.434 181.279L297.43 184.907L300.373 216.766L299.178 219.412L302.516 221.482H309.309L309.669 192.64L311.347 188.405V186.071L314.763 168.484L315.392 188.602L316.385 192.843L315.551 195.863L316.641 197.979L325.987 218.163H333.603L333.014 213.598C334.379 212.903 330.965 210.872 330.637 209.369L331.759 206.831L330.637 202.037L329.609 192.669L330.693 172.894L330.183 146.265C327.626 142.817 324.789 140.157 321.273 139.412L303.519 141.783Z" fill="#03183F"/>
<path d="M317.186 96.5158C321.437 96.5158 324.884 93.0495 324.884 88.7737C324.884 84.4979 321.437 81.0316 317.186 81.0316C312.935 81.0316 309.489 84.4979 309.489 88.7737C309.489 93.0495 312.935 96.5158 317.186 96.5158Z" fill="#FFB6B6"/>
<path d="M285.451 149.905C285.355 149.47 285.355 149.019 285.451 148.584C285.547 148.15 285.737 147.741 286.007 147.388C286.276 147.035 286.62 146.746 287.013 146.541C287.406 146.335 287.839 146.219 288.282 146.201L291.382 135.833L294.967 140.152L291.473 149.335C291.455 150.085 291.164 150.802 290.655 151.35C290.147 151.898 289.456 152.24 288.713 152.31C287.971 152.38 287.229 152.174 286.628 151.731C286.027 151.288 285.608 150.638 285.451 149.905Z" fill="#FFB6B6"/>
<path d="M305.565 107.289L304.175 104.736L302.385 105.337C302.385 105.337 300.408 106.62 297.64 111.463C296.36 113.704 293.593 128.069 293.593 128.069L287.124 145.296L293.719 146.418L299.221 132.22L305.6 118.633L305.565 107.289Z" fill="#9C0332"/>
<path d="M316.901 141.675C322.321 141.675 327.789 142.748 330.028 146.585C329.97 145.751 329.823 144.304 329.67 142.977L329.11 139.411L329.678 136.141L330.428 135.386L329.084 134.034L330.001 127.209L333.027 111.13C333.264 109.865 333.079 108.557 332.501 107.409C331.922 106.26 330.983 105.337 329.829 104.781L326.921 103.375L322.208 98.9774L313.682 98.9133L310.901 102.551L303.579 105.052L304.808 130.626L304.002 132.517C304.183 132.684 304.563 133.04 304.77 133.27C305.062 133.594 304.69 135.266 304.442 136.234L304.102 138.812L305.173 139.582L303.781 141.237L303.502 143.337C304.885 143.008 310.863 141.675 316.901 141.675Z" fill="#9C0332"/>
<path d="M319.156 96.1367C319.188 96.0639 319.221 95.9908 319.254 95.9175C319.241 95.9179 319.229 95.9197 319.216 95.92L319.156 96.1367Z" fill="#03183F"/>
<path d="M325.098 81.3837C324.732 81.0369 324.257 80.8303 323.756 80.8001C323.258 80.8162 322.753 81.2684 322.856 81.7584C321.942 80.1302 320.487 78.878 318.746 78.2215C317.005 77.5649 315.09 77.5461 313.337 78.1682C312.1 78.6072 310.887 79.4855 310.603 80.7736C310.575 81.1118 310.475 81.4399 310.309 81.7354C310.165 81.8933 309.979 82.0055 309.772 82.0581C309.566 82.1107 309.349 82.1014 309.147 82.0314L309.135 82.0278C309.066 82.0041 308.992 82.0018 308.922 82.0211C308.851 82.0404 308.789 82.0805 308.741 82.1361C308.694 82.1917 308.664 82.2603 308.656 82.3331C308.648 82.4058 308.662 82.4794 308.696 82.5442L309.046 83.2008C308.604 83.2997 308.146 83.2899 307.709 83.1722C307.637 83.153 307.56 83.1569 307.49 83.1834C307.42 83.2098 307.359 83.2574 307.317 83.3197C307.275 83.382 307.253 83.4559 307.254 83.5314C307.255 83.6068 307.279 83.68 307.323 83.741C307.905 84.5414 308.665 85.1943 309.541 85.6476C310.418 86.1009 311.388 86.3421 312.374 86.3519C313.772 86.3434 315.185 85.8585 316.546 86.182C317.073 86.3072 317.565 86.5493 317.986 86.8907C318.408 87.232 318.748 87.6639 318.981 88.1547C319.215 88.6455 319.337 89.1827 319.337 89.7269C319.338 90.2711 319.217 90.8085 318.984 91.2997C319.402 90.8397 320.21 90.9486 320.638 91.3997C320.835 91.6411 320.981 91.9207 321.066 92.221C321.151 92.5213 321.174 92.8361 321.133 93.1457C321.019 94.0941 320.739 95.0147 320.307 95.865C321.96 95.8139 323.559 95.2534 324.886 94.2593C326.213 93.2652 327.205 91.8854 327.727 90.3063C328.249 88.7271 328.277 87.0248 327.807 85.4291C327.337 83.8335 326.391 82.4214 325.098 81.3837H325.098Z" fill="#03183F"/>
<path d="M76.3352 52.4782C86.9041 52.4782 95.4718 43.8605 95.4718 33.23C95.4718 22.5994 86.9041 13.9817 76.3352 13.9817C65.7663 13.9817 57.1985 22.5994 57.1985 33.23C57.1985 43.8605 65.7663 52.4782 76.3352 52.4782Z" fill="#9C0332"/>
<path d="M22.5498 90.4879C12.9477 69.1248 13.3018 42.046 28.2039 24.0189C33.1895 49.0164 46.8052 71.4345 66.6418 87.3067C74.314 93.4001 83.4782 99.3738 85.574 108.978C86.8783 114.954 85.0297 121.274 81.8339 126.48C78.6379 131.686 74.183 135.968 69.7788 140.188L69.2847 141.632C50.1207 128.286 32.1519 111.851 22.5498 90.4879Z" fill="#3A6569"/>
<path d="M28.6187 24.2795C25.1891 43.1686 27.7369 63.2821 36.0728 80.588C37.875 84.3295 40.0269 87.9672 42.9081 90.9764C45.7905 93.987 49.2368 95.8821 53.2014 97.0464C56.8258 98.1108 60.6558 98.7774 63.9598 100.709C67.4425 102.746 69.6038 106.163 70.4458 110.082C71.4759 114.876 70.7319 119.757 69.8394 124.505C68.8485 129.776 67.7361 135.235 69.1721 140.535C69.3461 141.177 68.3455 141.411 68.1717 140.77C65.6734 131.55 70.5308 122.457 69.8519 113.188C69.535 108.863 67.9204 104.607 64.2333 102.101C61.0092 99.9098 57.0603 99.219 53.3812 98.1732C49.5181 97.0751 46.0488 95.3977 43.0967 92.6153C40.0768 89.769 37.779 86.2082 35.8896 82.5295C31.6285 74.233 28.8196 65.0923 27.3334 55.8891C25.6245 45.3114 25.7272 34.5175 27.6369 23.9746C27.7554 23.3221 28.7363 23.6313 28.6186 24.2795H28.6187Z" fill="white"/>
<path d="M33.0682 75.1065C29.9574 76.1093 26.5935 75.9672 23.5772 74.7056C20.561 73.444 18.0888 71.145 16.6021 68.2193C16.3033 67.6263 17.2055 67.1314 17.5047 67.7252C18.884 70.4522 21.1871 72.5935 23.9982 73.7625C26.8094 74.9315 29.9434 75.0513 32.8346 74.1002C33.4631 73.8943 33.6931 74.9017 33.0682 75.1065H33.0682Z" fill="white"/>
<path d="M51.2931 96.7501C54.4016 90.8055 55.1682 83.9009 53.4403 77.413C53.2685 76.7704 54.2691 76.5362 54.4407 77.178C56.2263 83.9329 55.4139 91.1165 52.1657 97.2954C51.8556 97.8841 50.9848 97.3356 51.2931 96.7501H51.2931Z" fill="white"/>
<path d="M26.9452 45.647C28.2292 45.5112 29.4596 45.0568 30.5259 44.3246C31.5921 43.5924 32.4609 42.6053 33.0542 41.4519C33.3566 40.8595 34.2272 41.4087 33.9267 41.9972C33.2654 43.2685 32.3046 44.3575 31.1283 45.1691C29.952 45.9807 28.596 46.4903 27.1788 46.6532C27.0465 46.6798 26.909 46.6548 26.7944 46.5831C26.6798 46.5115 26.5966 46.3987 26.5618 46.2676C26.5315 46.1342 26.5548 45.9942 26.6266 45.878C26.6984 45.7618 26.8129 45.6787 26.9452 45.647Z" fill="white"/>
<path d="M107.123 24.2281C106.944 24.6034 106.766 24.9787 106.592 25.3617C104.219 30.4198 102.26 35.6634 100.732 41.0408C100.607 41.4546 100.487 41.8759 100.374 42.2925C96.8299 55.2872 95.7151 68.8308 97.0864 82.2349C97.6369 87.5681 98.59 92.8516 99.9375 98.0394C101.799 105.204 104.384 112.823 103.8 119.977C103.748 120.724 103.649 121.467 103.506 122.202L71.0746 142.126C70.9783 142.134 70.8862 142.15 70.7895 142.158L69.5308 143.013C69.4427 142.751 69.357 142.476 69.2689 142.214C69.2172 142.061 69.1727 141.905 69.121 141.753C69.0888 141.65 69.0569 141.547 69.022 141.456C69.0112 141.422 69.0007 141.387 68.9944 141.36C68.9595 141.269 68.9367 141.181 68.9063 141.098C68.4229 139.566 67.9493 138.027 67.4856 136.483C67.481 136.476 67.481 136.476 67.4837 136.464C63.9804 124.688 61.4236 112.514 60.7851 100.337C60.7661 99.9704 60.7421 99.5968 60.7378 99.2213C60.4803 93.7309 60.6694 88.2284 61.3031 82.769C61.6597 79.7806 62.1664 76.8124 62.8214 73.8756C64.5283 66.2907 67.4107 59.0231 71.3629 52.3391C79.2436 39.0158 91.2728 28.376 105.995 24.5122C106.372 24.4137 106.742 24.3193 107.123 24.2281Z" fill="#3A6569"/>
<path d="M107.301 24.6869C93.2565 37.6919 83.2512 55.2943 79.5481 74.1602C78.7474 78.2389 78.2882 82.4466 78.7874 86.5941C79.2868 90.7433 80.9041 94.3436 83.3727 97.674C85.6295 100.719 88.2884 103.57 89.7701 107.114C91.3318 110.849 91.0121 114.886 89.3388 118.525C87.2914 122.977 83.7758 126.423 80.2213 129.674C76.2748 133.282 72.1187 136.968 70.0934 142.068C69.848 142.686 68.9089 142.267 69.1539 141.65C72.6778 132.776 81.999 128.457 87.0053 120.645C89.3413 117 90.5992 112.624 89.1554 108.391C87.8928 104.689 85.1533 101.746 82.8418 98.6826C80.4146 95.4664 78.6486 92.0262 77.957 88.0168C77.2495 83.9154 77.5462 79.6809 78.2396 75.5994C79.8035 66.3947 83.0322 57.3953 87.3544 49.1471C92.3215 39.6665 98.8644 31.1103 106.7 23.8489C107.185 23.3997 107.783 24.2406 107.301 24.6869L107.301 24.6869Z" fill="white"/>
<path d="M80.4301 67.9641C77.346 66.8809 74.7452 64.7304 73.092 61.8965C71.4389 59.0626 70.8411 55.7299 71.4054 52.4935C71.5218 51.8391 72.5383 51.9903 72.4217 52.6456C71.8908 55.6583 72.4479 58.7627 73.9927 61.3984C75.5375 64.0342 77.9681 66.0277 80.8459 67.0192C81.471 67.2354 81.0516 68.1791 80.4301 67.9641H80.4301Z" fill="white"/>
<path d="M82.0263 96.2818C88.0665 93.4179 92.8116 88.3692 95.3154 82.1426C95.5629 81.5254 96.502 81.9444 96.2548 82.5608C93.6372 89.0355 88.6886 94.2793 82.3965 97.2457C81.7966 97.528 81.4296 96.5626 82.0262 96.2818L82.0263 96.2818Z" fill="white"/>
<path d="M93.175 40.7342C94.2815 41.4034 95.5359 41.7857 96.8255 41.8468C98.1152 41.9078 99.3997 41.6458 100.564 41.0841C101.16 40.7943 101.526 41.76 100.934 42.048C99.6451 42.6625 98.2261 42.9502 96.8011 42.8859C95.376 42.8216 93.9883 42.4072 92.7592 41.6791C92.6377 41.6202 92.5429 41.517 92.4943 41.3904C92.4457 41.2638 92.4468 41.1233 92.4974 40.9975C92.5531 40.8727 92.6555 40.775 92.7824 40.7257C92.9093 40.6764 93.0504 40.6794 93.175 40.7342Z" fill="white"/>
<path d="M183.898 67.088C174.296 45.7249 174.65 18.6461 189.552 0.619019C194.538 25.6165 208.153 48.0346 227.99 63.9068C235.662 70.0002 244.826 75.9739 246.922 85.5779C248.227 91.5538 246.378 97.8745 243.182 103.08C239.986 108.286 235.531 112.568 231.127 116.788L230.633 118.232C211.469 104.886 193.5 88.4511 183.898 67.088Z" fill="#3A6569"/>
<path d="M189.967 0.879619C186.537 19.7687 189.085 39.8822 197.421 57.1881C199.223 60.9296 201.375 64.5673 204.256 67.5765C207.139 70.5871 210.585 72.4822 214.55 73.6465C218.174 74.7109 222.004 75.3775 225.308 77.3096C228.791 79.346 230.952 82.7631 231.794 86.6817C232.824 91.4762 232.08 96.357 231.188 101.105C230.197 106.376 229.084 111.836 230.52 117.135C230.694 117.777 229.694 118.011 229.52 117.37C227.022 108.15 231.879 99.0571 231.2 89.7879C230.883 85.4627 229.269 81.2073 225.582 78.7013C222.357 76.5099 218.408 75.8191 214.729 74.7733C210.866 73.6752 207.397 71.9978 204.445 69.2154C201.425 66.3691 199.127 62.8083 197.238 59.1296C192.977 50.8331 190.168 41.6924 188.682 32.4892C186.973 21.9115 187.075 11.1176 188.985 0.574666C189.104 -0.0778273 190.085 0.231405 189.967 0.879619H189.967Z" fill="white"/>
<path d="M194.416 51.7067C191.306 52.7095 187.942 52.5674 184.925 51.3058C181.909 50.0442 179.437 47.7453 177.95 44.8195C177.652 44.2265 178.554 43.7316 178.853 44.3255C180.232 47.0525 182.535 49.1937 185.347 50.3627C188.158 51.5318 191.292 51.6515 194.183 50.7005C194.811 50.4945 195.041 51.5019 194.416 51.7067Z" fill="white"/>
<path d="M212.641 73.3503C215.75 67.4057 216.516 60.5011 214.788 54.0132C214.617 53.3706 215.617 53.1364 215.789 53.7783C217.574 60.5331 216.762 67.7168 213.514 73.8956C213.204 74.4844 212.333 73.9358 212.641 73.3503H212.641Z" fill="white"/>
<path d="M188.293 22.2472C189.577 22.1115 190.808 21.6571 191.874 20.9249C192.94 20.1926 193.809 19.2055 194.402 18.0521C194.705 17.4597 195.575 18.0089 195.275 18.5974C194.614 19.8687 193.653 20.9577 192.477 21.7693C191.3 22.581 189.944 23.0905 188.527 23.2534C188.395 23.28 188.257 23.255 188.143 23.1834C188.028 23.1117 187.945 22.9989 187.91 22.8678C187.88 22.7344 187.903 22.5944 187.975 22.4782C188.047 22.362 188.161 22.279 188.293 22.2472V22.2472Z" fill="white"/>
<path d="M268.471 0.828247C268.293 1.20354 268.114 1.57884 267.94 1.96181C265.568 7.01991 263.608 12.2635 262.08 17.6408C261.955 18.0547 261.835 18.476 261.722 18.8926C258.178 31.8873 257.063 45.4309 258.435 58.835C258.985 64.1682 259.938 69.4517 261.286 74.6395C263.147 81.804 265.732 89.4231 265.149 96.5771C265.096 97.3242 264.998 98.0672 264.854 98.8021L232.423 118.726C232.326 118.734 232.234 118.75 232.138 118.758L230.879 119.613C230.791 119.351 230.705 119.076 230.617 118.814C230.565 118.662 230.521 118.505 230.469 118.353C230.437 118.25 230.405 118.147 230.37 118.056C230.359 118.022 230.349 117.987 230.343 117.96C230.308 117.87 230.285 117.781 230.254 117.698C229.771 116.166 229.297 114.627 228.834 113.083C228.829 113.076 228.829 113.076 228.832 113.064C225.328 101.288 222.772 89.1139 222.133 76.9369C222.114 76.5705 222.09 76.1969 222.086 75.8214C221.828 70.331 222.018 64.8285 222.651 59.3691C223.008 56.3807 223.515 53.4125 224.17 50.4757C225.876 42.8908 228.759 35.6232 232.711 28.9392C240.592 15.6159 252.621 4.97607 267.343 1.11233C267.72 1.01377 268.09 0.919367 268.471 0.828247Z" fill="#3A6569"/>
<path d="M268.65 1.287C254.605 14.292 244.599 31.8944 240.896 50.7603C240.096 54.839 239.636 59.0467 240.136 63.1941C240.635 67.3434 242.252 70.9436 244.721 74.2741C246.978 77.3189 249.637 80.1705 251.118 83.714C252.68 87.449 252.36 91.4862 250.687 95.1248C248.64 99.5768 245.124 103.023 241.57 106.274C237.623 109.882 233.467 113.568 231.442 118.669C231.196 119.287 230.257 118.867 230.502 118.25C234.026 109.376 243.347 105.057 248.353 97.2453C250.689 93.6 251.947 89.2245 250.504 84.9908C249.241 81.2887 246.501 78.3457 244.19 75.2827C241.763 72.0665 239.997 68.6263 239.305 64.6169C238.598 60.5155 238.894 56.2809 239.588 52.1995C241.152 42.9948 244.38 33.9954 248.703 25.7472C253.67 16.2666 260.213 7.71044 268.048 0.448999C268.533 -0.000236481 269.132 0.84071 268.65 1.28701L268.65 1.287Z" fill="white"/>
<path d="M241.778 44.564C238.694 43.4809 236.093 41.3303 234.44 38.4964C232.787 35.6625 232.189 32.3298 232.754 29.0935C232.87 28.4391 233.887 28.5903 233.77 29.2456C233.239 32.2583 233.796 35.3626 235.341 37.9984C236.886 40.6341 239.316 42.6277 242.194 43.6192C242.819 43.8354 242.4 44.779 241.778 44.564H241.778Z" fill="white"/>
<path d="M243.374 72.8819C249.415 70.018 254.16 64.9693 256.664 58.7427C256.911 58.1255 257.85 58.5445 257.603 59.1609C254.985 65.6356 250.037 70.8794 243.745 73.8458C243.145 74.1281 242.778 73.1627 243.374 72.8819L243.374 72.8819Z" fill="white"/>
<path d="M254.523 17.3344C255.63 18.0036 256.884 18.3859 258.174 18.447C259.463 18.5081 260.748 18.246 261.912 17.6843C262.508 17.3945 262.875 18.3602 262.282 18.6482C260.993 19.2627 259.574 19.5504 258.149 19.4861C256.724 19.4218 255.337 19.0075 254.107 18.2793C253.986 18.2204 253.891 18.1172 253.843 17.9906C253.794 17.864 253.795 17.7235 253.846 17.5977C253.901 17.4729 254.004 17.3752 254.131 17.3259C254.258 17.2766 254.399 17.2797 254.523 17.3344Z" fill="white"/>
<path d="M61.5137 225.524L65.0583 228.285L78.8401 230.69L94.1585 192.39C94.1585 192.39 103.539 162.873 129.805 168.911L214.232 167.402C214.232 167.402 240.154 164.73 244.438 177.026C245.249 179.355 267.139 230.808 267.139 230.808L282.486 228.629L280.647 184.763L244.195 99.6554L180.836 95.6761L115.547 100.221L61.5137 225.524Z" fill="#03183F"/>
<path d="M131.681 171.553C145.152 171.553 156.071 160.57 156.071 147.021C156.071 133.473 145.152 122.489 131.681 122.489C118.211 122.489 107.292 133.473 107.292 147.021C107.292 160.57 118.211 171.553 131.681 171.553Z" fill="#E6E6E6"/>
<path d="M213.481 171.553C226.951 171.553 237.871 160.57 237.871 147.021C237.871 133.473 226.951 122.489 213.481 122.489C200.011 122.489 189.091 133.473 189.091 147.021C189.091 160.57 200.011 171.553 213.481 171.553Z" fill="#E6E6E6"/>
<path d="M103.164 66.6313L113.206 64.6507C113.206 64.6507 188.817 53.7992 236.608 66.6313L232.993 76.8216L106.541 76.0668L103.164 66.6313Z" fill="#E6E6E6"/>
<path d="M205.109 119.281H140.942C133.151 119.281 126.417 113.855 124.931 106.378L117.909 71.0508C117.753 70.2798 117.76 69.4848 117.927 68.7164C118.094 67.948 118.419 67.2231 118.881 66.5881C119.364 65.9219 119.977 65.3626 120.684 64.945C121.391 64.5274 122.175 64.2604 122.989 64.1605C156.832 59.9352 190.343 59.928 222.593 64.1386C223.396 64.2374 224.169 64.5012 224.866 64.9136C225.562 65.326 226.167 65.8782 226.642 66.5358C227.101 67.1616 227.427 67.8757 227.599 68.6336C227.771 69.3915 227.787 70.1769 227.645 70.9411L221.162 106.16C219.763 113.763 213.012 119.281 205.109 119.281Z" fill="#9C0332"/>
<path d="M74.6203 72.3829L74.8997 67.3274C74.9433 66.5398 75.1759 65.7746 75.5777 65.0972C75.9795 64.4197 76.5386 63.8503 77.2069 63.4377C81.2584 60.9377 92.1873 55.4335 106.134 58.3188C107.114 58.5227 108.007 59.025 108.692 59.7574C109.378 60.4898 109.823 61.4168 109.966 62.4123L110.34 65.0428L74.6203 72.3829Z" fill="#03183F"/>
<path d="M271.293 72.383L235.573 65.0429L236.174 60.8168C236.243 60.3178 236.459 59.851 236.794 59.4764C237.129 59.1018 237.568 58.8366 238.054 58.7149C254.138 54.6549 266.449 61.8649 269.84 64.1714C270.162 64.3911 270.429 64.6823 270.621 65.0224C270.813 65.3625 270.925 65.7425 270.947 66.1329L271.293 72.383Z" fill="#03183F"/>
<path d="M63.279 228.821C62.4183 228.83 61.5729 228.591 60.8432 228.132C51.279 222.514 45.3164 212.22 43.1345 197.543C41.3322 185.42 42.0849 170.204 45.3714 152.316C51.1982 120.603 63.4108 88.9043 68.391 76.7477C69.0507 75.1432 70.076 73.7169 71.3841 72.5838C72.6922 71.4508 74.2466 70.6426 75.9221 70.2244C86.189 67.6844 104.112 63.4233 108.793 63.4233C115.207 63.4233 118.678 69.4968 118.712 69.5582L118.731 69.6083L124.364 94.1784V94.533C127.472 105.109 125.163 112.749 122.677 117.296C119.979 122.232 116.487 124.696 116.453 124.72C110.97 128.918 102.038 142.442 93.1489 160.01C83.9113 178.266 77.0633 196.28 74.831 208.198C72.0987 222.785 68.0934 227.25 65.2145 228.428C64.601 228.684 63.9435 228.818 63.279 228.821Z" fill="#E6E6E6"/>
<path d="M202.994 116.262H142.365C138.786 116.257 135.321 115.002 132.56 112.713C129.799 110.423 127.914 107.24 127.226 103.708L120.591 69.3494C120.444 68.5889 120.453 67.806 120.618 67.0492C120.783 66.2924 121.101 65.5777 121.552 64.9492C122.002 64.3208 122.576 63.7919 123.238 63.3953C123.9 62.9987 124.635 62.7427 125.399 62.6433C157.378 58.5339 189.043 58.5269 219.516 62.6219C220.269 62.725 220.994 62.9805 221.647 63.373C222.299 63.7654 222.866 64.2867 223.312 64.9054C223.759 65.5241 224.077 66.2274 224.246 66.9728C224.415 67.7183 224.433 68.4905 224.297 69.2429L218.172 103.496C217.534 107.077 215.664 110.319 212.889 112.653C210.114 114.987 206.611 116.264 202.994 116.262Z" fill="#E6E6E6"/>
<path d="M282.635 228.821C281.97 228.818 281.313 228.684 280.699 228.428C277.82 227.25 273.814 222.785 271.082 208.198C268.85 196.28 262.002 178.266 252.764 160.01C243.875 142.442 234.943 128.918 229.454 124.715C229.426 124.696 225.934 122.232 223.236 117.296C220.75 112.749 218.441 105.109 221.549 94.533L221.553 94.136L227.188 69.5818L227.201 69.5582C227.235 69.4969 230.706 63.4233 237.121 63.4233C241.801 63.4233 259.724 67.6844 269.991 70.2244C271.666 70.6427 273.221 71.4509 274.529 72.584C275.837 73.717 276.862 75.1432 277.522 76.7477C282.502 88.9044 294.715 120.603 300.542 152.316C303.828 170.204 304.581 185.42 302.779 197.543C300.597 212.22 294.634 222.514 285.057 228.14C284.331 228.595 283.491 228.831 282.635 228.821Z" fill="#E6E6E6"/>
<path d="M131.681 157.589C139.763 157.589 146.315 150.999 146.315 142.87C146.315 134.74 139.763 128.15 131.681 128.15C123.599 128.15 117.047 134.74 117.047 142.87C117.047 150.999 123.599 157.589 131.681 157.589Z" fill="#03183F"/>
<path d="M131.681 152.683C137.069 152.683 141.437 148.289 141.437 142.87C141.437 137.45 137.069 133.057 131.681 133.057C126.293 133.057 121.925 137.45 121.925 142.87C121.925 148.289 126.293 152.683 131.681 152.683Z" fill="#E6E6E6"/>
<path d="M213.481 157.589C221.563 157.589 228.115 150.999 228.115 142.87C228.115 134.74 221.563 128.15 213.481 128.15C205.399 128.15 198.847 134.74 198.847 142.87C198.847 150.999 205.399 157.589 213.481 157.589Z" fill="#03183F"/>
<path d="M213.481 152.683C218.869 152.683 223.237 148.289 223.237 142.87C223.237 137.45 218.869 133.057 213.481 133.057C208.093 133.057 203.725 137.45 203.725 142.87C203.725 148.289 208.093 152.683 213.481 152.683Z" fill="#E6E6E6"/>
<path d="M163.576 125.131C164.198 125.131 164.701 124.624 164.701 123.999C164.701 123.374 164.198 122.867 163.576 122.867C162.954 122.867 162.45 123.374 162.45 123.999C162.45 124.624 162.954 125.131 163.576 125.131Z" fill="#E6E6E6"/>
<path d="M168.454 125.131C169.075 125.131 169.579 124.624 169.579 123.999C169.579 123.374 169.075 122.867 168.454 122.867C167.832 122.867 167.328 123.374 167.328 123.999C167.328 124.624 167.832 125.131 168.454 125.131Z" fill="#E6E6E6"/>
<path d="M166.202 129.283C166.824 129.283 167.328 128.776 167.328 128.15C167.328 127.525 166.824 127.018 166.202 127.018C165.581 127.018 165.077 127.525 165.077 128.15C165.077 128.776 165.581 129.283 166.202 129.283Z" fill="#E6E6E6"/>
<path d="M170.705 129.283C171.327 129.283 171.831 128.776 171.831 128.15C171.831 127.525 171.327 127.018 170.705 127.018C170.083 127.018 169.579 127.525 169.579 128.15C169.579 128.776 170.083 129.283 170.705 129.283Z" fill="#E6E6E6"/>
<path d="M175.208 129.283C175.83 129.283 176.334 128.776 176.334 128.15C176.334 127.525 175.83 127.018 175.208 127.018C174.586 127.018 174.082 127.525 174.082 128.15C174.082 128.776 174.586 129.283 175.208 129.283Z" fill="#E6E6E6"/>
<path d="M179.711 129.283C180.332 129.283 180.836 128.776 180.836 128.15C180.836 127.525 180.332 127.018 179.711 127.018C179.089 127.018 178.585 127.525 178.585 128.15C178.585 128.776 179.089 129.283 179.711 129.283Z" fill="#E6E6E6"/>
<path d="M173.332 125.131C173.953 125.131 174.457 124.624 174.457 123.999C174.457 123.374 173.953 122.867 173.332 122.867C172.71 122.867 172.206 123.374 172.206 123.999C172.206 124.624 172.71 125.131 173.332 125.131Z" fill="#E6E6E6"/>
<path d="M178.21 125.131C178.831 125.131 179.335 124.624 179.335 123.999C179.335 123.374 178.831 122.867 178.21 122.867C177.588 122.867 177.084 123.374 177.084 123.999C177.084 124.624 177.588 125.131 178.21 125.131Z" fill="#E6E6E6"/>
<path d="M183.088 125.131C183.709 125.131 184.213 124.624 184.213 123.999C184.213 123.374 183.709 122.867 183.088 122.867C182.466 122.867 181.962 123.374 181.962 123.999C181.962 124.624 182.466 125.131 183.088 125.131Z" fill="#E6E6E6"/>
<path d="M177.834 158.91H168.079C167.631 158.91 167.201 158.731 166.885 158.412C166.568 158.094 166.39 157.662 166.39 157.212C166.39 156.761 166.568 156.329 166.885 156.011C167.201 155.692 167.631 155.513 168.079 155.513H177.834C178.282 155.513 178.712 155.692 179.028 156.011C179.345 156.329 179.523 156.761 179.523 157.212C179.523 157.662 179.345 158.094 179.028 158.412C178.712 158.731 178.282 158.91 177.834 158.91Z" fill="#E6E6E6"/>
<path d="M113.237 85.082C112.607 85.0802 111.996 84.8651 111.503 84.4714C111.01 84.0777 110.663 83.5284 110.518 82.912L109.022 76.523C108.853 75.7968 108.977 75.0327 109.368 74.3985C109.758 73.7644 110.383 73.3122 111.105 73.1411C111.827 72.9701 112.587 73.0943 113.217 73.4865C113.848 73.8786 114.299 74.5066 114.469 75.2325L115.965 81.6214C116.062 82.035 116.064 82.4652 115.971 82.8796C115.879 83.2941 115.695 83.6823 115.433 84.0151C115.17 84.3479 114.836 84.6167 114.456 84.8014C114.076 84.9862 113.659 85.0821 113.237 85.082Z" fill="#03183F"/>
<path d="M233.052 84.7045C232.629 84.7046 232.213 84.6087 231.832 84.424C231.452 84.2392 231.118 83.9704 230.856 83.6376C230.593 83.3049 230.409 82.9167 230.317 82.5022C230.225 82.0877 230.227 81.6576 230.323 81.244L231.819 74.855C231.99 74.1292 232.44 73.5012 233.071 73.109C233.702 72.7169 234.462 72.5927 235.183 72.7637C235.905 72.9347 236.53 73.387 236.921 74.0211C237.311 74.6552 237.435 75.4193 237.266 76.1456L235.77 82.5346C235.625 83.1509 235.278 83.7003 234.785 84.094C234.292 84.4877 233.681 84.7028 233.052 84.7045Z" fill="#03183F"/>
<path d="M92.5933 103.94C91.6725 103.941 90.774 103.656 90.02 103.124L86.8795 100.913C86.2886 100.496 85.8062 99.9428 85.473 99.2992C85.1398 98.6555 84.9657 97.9406 84.9655 97.215V90.4428C84.967 89.083 85.5047 87.7792 86.4607 86.8176C87.4168 85.856 88.7129 85.3151 90.0649 85.3136H94.8751C96.2271 85.3151 97.5233 85.856 98.4793 86.8176C99.4353 87.7792 99.9731 89.083 99.9746 90.4428V97.2815C99.9733 97.9884 99.8075 98.6852 99.4905 99.3161C99.1735 99.947 98.7141 100.495 98.149 100.915L95.2551 103.06C94.4843 103.632 93.5514 103.941 92.5933 103.94Z" fill="#03183F"/>
<path d="M94.8751 128.716H90.0649C88.7129 128.715 87.4168 128.174 86.4608 127.212C85.5048 126.251 84.967 124.947 84.9655 123.587V116.815C84.9657 116.089 85.1398 115.375 85.473 114.731C85.8062 114.087 86.2886 113.534 86.8795 113.117L90.02 110.906C90.7894 110.364 91.7085 110.078 92.6478 110.09C93.5872 110.101 94.4992 110.409 95.2551 110.97L98.149 113.115C98.7141 113.536 99.1735 114.083 99.4905 114.714C99.8075 115.345 99.9733 116.042 99.9746 116.749V123.587C99.9731 124.947 99.4353 126.251 98.4793 127.212C97.5233 128.174 96.2271 128.715 94.8751 128.716Z" fill="#03183F"/>
<path d="M109.884 114.563H103.151C102.43 114.563 101.719 114.388 101.079 114.053C100.439 113.718 99.8892 113.232 99.4752 112.638L97.2768 109.479C96.7377 108.706 96.4538 107.781 96.4652 106.836C96.4767 105.891 96.7828 104.974 97.3405 104.214L99.473 101.303C99.8909 100.735 100.435 100.272 101.063 99.9536C101.69 99.6348 102.383 99.468 103.085 99.4667H109.884C111.236 99.4682 112.533 100.009 113.489 100.971C114.445 101.932 114.982 103.236 114.984 104.596V109.434C114.982 110.794 114.445 112.098 113.489 113.059C112.533 114.021 111.236 114.562 109.884 114.563Z" fill="#03183F"/>
<path d="M81.4134 114.563H74.6806C73.3286 114.562 72.0324 114.021 71.0764 113.059C70.1204 112.098 69.5827 110.794 69.5811 109.434V104.596C69.5827 103.236 70.1204 101.932 71.0764 100.971C72.0324 100.009 73.3286 99.4682 74.6806 99.4667H81.4796C82.1824 99.468 82.8751 99.6348 83.5024 99.9536C84.1296 100.272 84.674 100.735 85.0919 101.303L87.2244 104.214C87.7821 104.974 88.0883 105.891 88.0997 106.836C88.1111 107.781 87.8273 108.706 87.2881 109.479L85.0897 112.638C84.6758 113.232 84.1255 113.718 83.4856 114.053C82.8457 114.388 82.1349 114.563 81.4134 114.563Z" fill="#03183F"/>
<path d="M253.631 96.4474C258.397 96.4474 262.261 92.5609 262.261 87.7668C262.261 82.9726 258.397 79.0862 253.631 79.0862C248.864 79.0862 245 82.9726 245 87.7668C245 92.5609 248.864 96.4474 253.631 96.4474Z" fill="#03183F"/>
<path d="M272.767 116.451C277.534 116.451 281.397 112.564 281.397 107.77C281.397 102.976 277.534 99.0894 272.767 99.0894C268.001 99.0894 264.137 102.976 264.137 107.77C264.137 112.564 268.001 116.451 272.767 116.451Z" fill="#03183F"/>
<path d="M253.631 135.321C258.397 135.321 262.261 131.435 262.261 126.641C262.261 121.847 258.397 117.96 253.631 117.96C248.864 117.96 245 121.847 245 126.641C245 131.435 248.864 135.321 253.631 135.321Z" fill="#03183F"/>
<path d="M234.494 116.073C239.26 116.073 243.124 112.187 243.124 107.393C243.124 102.598 239.26 98.7119 234.494 98.7119C229.728 98.7119 225.864 102.598 225.864 107.393C225.864 112.187 229.728 116.073 234.494 116.073Z" fill="#03183F"/>
<path d="M272.767 113.431C271.654 113.431 270.566 113.099 269.64 112.477C268.715 111.855 267.993 110.971 267.567 109.936C267.141 108.902 267.03 107.764 267.247 106.665C267.464 105.567 268 104.559 268.787 103.767C269.575 102.975 270.577 102.436 271.669 102.217C272.761 101.999 273.893 102.111 274.921 102.54C275.95 102.968 276.829 103.694 277.447 104.625C278.066 105.556 278.396 106.65 278.396 107.77C278.394 109.271 277.8 110.71 276.745 111.771C275.69 112.832 274.259 113.429 272.767 113.431ZM272.767 102.863C271.802 102.863 270.859 103.151 270.057 103.69C269.255 104.229 268.63 104.996 268.261 105.892C267.891 106.789 267.795 107.775 267.983 108.727C268.171 109.679 268.636 110.553 269.318 111.239C270 111.925 270.869 112.393 271.816 112.582C272.762 112.771 273.743 112.674 274.634 112.303C275.525 111.931 276.287 111.303 276.823 110.496C277.359 109.689 277.645 108.74 277.645 107.77C277.644 106.469 277.129 105.222 276.215 104.302C275.3 103.382 274.061 102.865 272.767 102.863Z" fill="#E6E6E6"/>
<path d="M259.661 91.9785L248.35 91.8176L254.145 82.0452L259.661 91.9785ZM249.661 91.0812L258.372 91.2053L254.123 83.5548L249.661 91.0812Z" fill="#E6E6E6"/>
<path d="M238.997 111.921H229.991V102.863H238.997V111.921ZM230.742 111.167H238.246V103.618H230.742V111.167Z" fill="#E6E6E6"/>
<path d="M258.288 130.538L254.162 126.396L257.8 122.744L257.27 122.209L253.631 125.862L249.991 122.209L249.461 122.744L253.099 126.396L248.974 130.538L249.504 131.072L253.631 126.929L257.757 131.072L258.288 130.538Z" fill="#E6E6E6"/>
<path d="M92.5809 28.0815C91.4677 28.0815 90.3795 27.7495 89.4539 27.1275C88.5283 26.5054 87.8069 25.6212 87.3809 24.5868C86.9549 23.5523 86.8434 22.414 87.0606 21.3158C87.2778 20.2177 87.8138 19.2089 88.601 18.4172C89.3881 17.6254 90.391 17.0863 91.4828 16.8678C92.5746 16.6494 93.7063 16.7615 94.7348 17.19C95.7632 17.6185 96.6423 18.3441 97.2607 19.2751C97.8792 20.2061 98.2093 21.3006 98.2093 22.4203C98.2076 23.9212 97.6141 25.3602 96.5589 26.4215C95.5037 27.4829 94.0731 28.0798 92.5809 28.0815ZM92.5809 17.5139C91.6161 17.5139 90.673 17.8016 89.8708 18.3408C89.0686 18.8799 88.4434 19.6462 88.0742 20.5427C87.705 21.4392 87.6084 22.4257 87.7966 23.3775C87.9849 24.3292 88.4494 25.2035 89.1316 25.8897C89.8138 26.5758 90.683 27.0431 91.6292 27.2324C92.5755 27.4218 93.5563 27.3246 94.4476 26.9532C95.3389 26.5819 96.1008 25.953 96.6368 25.1462C97.1727 24.3393 97.4588 23.3907 97.4588 22.4203C97.4574 21.1195 96.943 19.8723 96.0285 18.9525C95.114 18.0327 93.8741 17.5153 92.5809 17.5139Z" fill="#E6E6E6"/>
<path d="M79.8502 18.7063L68.5391 18.5454L74.3334 8.77295L79.8502 18.7063ZM69.8495 17.809L78.5611 17.933L74.3121 10.2826L69.8495 17.809Z" fill="#E6E6E6"/>
<path d="M63.2023 32.4752H54.1968V23.4172H63.2023V32.4752ZM54.9472 31.7204H62.4518V24.1721H54.9472V31.7204Z" fill="#E6E6E6"/>
<path d="M71.347 49.3397L67.2214 45.1979L70.8596 41.5457L70.3294 41.0112L66.69 44.6646L63.0507 41.0112L62.5205 41.5457L66.1587 45.1979L62.0331 49.3397L62.5633 49.8741L66.69 45.7312L70.8168 49.8741L71.347 49.3397Z" fill="#E6E6E6"/>
<path opacity="0.2" d="M325.487 130.226L310.922 141.252L327.363 134L325.487 130.226Z" fill="black"/>
<path d="M56.073 143.813L37.6868 144.568L35.4354 132.113L51.195 127.207L56.073 143.813Z" fill="#A0616A"/>
<path d="M49.3131 113.289L45.2122 109.089L50.2405 101.356L58.8467 86.9465C58.5655 86.3258 58.4783 85.6338 58.5966 84.9621C58.7149 84.2904 59.0332 83.6707 59.5093 83.1849C59.9854 82.6991 60.5969 82.3701 61.2629 82.2415C61.929 82.1128 62.6181 82.1906 63.2393 82.4645C63.8604 82.7384 64.3842 83.1955 64.7414 83.7754C65.0986 84.3552 65.2724 85.0305 65.2398 85.7119C65.2072 86.3932 64.9696 87.0486 64.5587 87.5912C64.1477 88.1338 63.5826 88.5382 62.9382 88.7508L55.8345 104.134L49.3131 113.289Z" fill="#A0616A"/>
<path d="M44.7703 122.877C44.2888 123.627 43.6027 124.222 42.7941 124.59C41.9855 124.959 41.0886 125.085 40.2105 124.954C39.3748 124.855 38.586 124.512 37.9411 123.969C37.2962 123.425 36.8232 122.703 36.5801 121.893C36.4011 121.318 36.349 120.71 36.4274 120.113C36.5058 119.515 36.7128 118.942 37.034 118.434C39.7774 113.782 44.8372 107.639 44.8879 107.577L44.9685 107.479L53.5024 109.339L44.7703 122.877Z" fill="#9C0332"/>
<path d="M51.6907 225.822L56.7897 225.822L59.2152 206.04L51.6896 206.04L51.6907 225.822Z" fill="#A0616A"/>
<path d="M50.3898 224.148L60.4316 224.148H60.4321C62.1293 224.148 63.7569 224.826 64.957 226.033C66.1571 227.24 66.8314 228.877 66.8315 230.584V230.793L50.3901 230.794L50.3898 224.148Z" fill="#03183F"/>
<path d="M11.9878 223.603L17.0294 224.369L22.3681 205.174L15.7588 204.042L11.9878 223.603Z" fill="#A0616A"/>
<path d="M10.9506 221.751L20.8796 223.261L20.88 223.261C22.5581 223.516 24.0667 224.431 25.0739 225.805C26.0812 227.179 26.5045 228.899 26.2509 230.587L26.2198 230.794L9.96313 228.323L10.9506 221.751Z" fill="#03183F"/>
<path d="M36.9363 140.794L54.572 137.775L60.0287 149.088L60.2367 222.925L50.5576 222.864L46.5116 163.102L20.725 218.323L10.3271 217.068L32.9944 157.873C32.9944 157.873 31.7467 147.415 35.6978 142.185L36.9363 140.794Z" fill="#03183F"/>
<path d="M30.3891 118.504C30.1196 117.69 30.091 116.814 30.3067 115.984C30.5225 115.153 30.9733 114.404 31.6045 113.826L34.1108 111.534L41.1768 110.337L45.5948 109.529L52.6959 130.226L35.4492 138.196C33.9356 137.867 33.331 137.035 34.2117 135.379L30.3891 118.504Z" fill="#9C0332"/>
<path d="M46.2173 125.488L51.151 122.321L57.633 128.869L69.8687 140.318C70.5307 140.17 71.2218 140.227 71.8507 140.483C72.4796 140.738 73.0165 141.18 73.3906 141.749C73.7647 142.318 73.9582 142.987 73.9455 143.67C73.9328 144.352 73.7146 145.014 73.3197 145.568C72.9248 146.123 72.3718 146.544 71.7339 146.775C71.096 147.007 70.4032 147.038 69.7472 146.865C69.0912 146.692 68.5029 146.323 68.0601 145.806C67.6173 145.289 67.3409 144.65 67.2674 143.972L53.7736 133.799L46.2173 125.488Z" fill="#A0616A"/>
<path d="M37.8305 119.033C37.2006 118.404 36.7641 117.606 36.5731 116.735C36.3822 115.863 36.445 114.954 36.7539 114.117C37.0235 113.315 37.5199 112.61 38.1821 112.088C38.8444 111.566 39.6438 111.249 40.4822 111.178C41.0787 111.12 41.6804 111.195 42.2454 111.396C42.8103 111.596 43.325 111.919 43.7534 112.34C47.7106 116.002 52.6395 122.252 52.6888 122.314L52.767 122.414L49.1928 130.427L37.8305 119.033Z" fill="#9C0332"/>
<path d="M38.0758 107.819C42.3595 107.819 45.8321 104.326 45.8321 100.017C45.8321 95.7087 42.3595 92.2158 38.0758 92.2158C33.7921 92.2158 30.3195 95.7087 30.3195 100.017C30.3195 104.326 33.7921 107.819 38.0758 107.819Z" fill="#A0616A"/>
<path d="M31.7962 111.132C30.5934 111.132 29.3917 111.058 28.1978 110.911L28.0341 110.891L26.7848 104.069C26.2549 101.177 26.8457 98.1903 28.4359 95.7226C30.026 93.2548 32.495 91.4929 35.336 90.7985C35.5256 90.7502 35.7247 90.7554 35.9116 90.8136C36.0984 90.8717 36.2656 90.9806 36.3949 91.1282L36.6929 91.0237C37.8337 90.6236 39.0417 90.4534 40.2479 90.5228C41.4541 90.5923 42.6349 90.9 43.7228 91.4284C44.8108 91.9569 45.7846 92.6957 46.5887 93.6027C47.3928 94.5097 48.0114 95.5671 48.4092 96.7146L48.483 96.9278L46.4946 97.6251C45.875 97.8425 45.3114 98.196 44.8447 98.6599C44.3781 99.1239 44.0201 99.6866 43.7968 100.307C43.5736 100.928 43.4906 101.591 43.5541 102.248C43.6176 102.905 43.8258 103.539 44.1637 104.105L46.1967 107.509L45.9803 107.618C41.5923 109.894 36.733 111.097 31.7962 111.132Z" fill="#03183F"/>
<path d="M298.268 143.779C298.358 143.342 298.541 142.931 298.806 142.574C299.071 142.217 299.41 141.923 299.8 141.712C300.191 141.502 300.622 141.379 301.064 141.354C301.506 141.329 301.948 141.402 302.359 141.568L309.414 133.39L310.923 138.808L303.992 145.743C303.67 146.419 303.113 146.953 302.425 147.243C301.738 147.533 300.968 147.56 300.263 147.318C299.557 147.076 298.964 146.582 298.597 145.93C298.229 145.277 298.112 144.512 298.268 143.779H298.268Z" fill="#FFB6B6"/>
<path d="M329.746 107.826L332.636 107.669L333.071 109.517C333.071 109.517 333.029 111.883 330.394 116.8C327.758 121.718 307.342 143.614 307.342 143.614L302.92 138.567L313.849 127.244L320.467 115.377L329.746 107.826Z" fill="#9C0332"/>
<path d="M0.467913 231.213H343.532C343.656 231.213 343.775 231.164 343.863 231.075C343.951 230.987 344 230.867 344 230.743C344 230.618 343.951 230.498 343.863 230.41C343.775 230.322 343.656 230.272 343.532 230.272H0.467913C0.343816 230.272 0.224802 230.322 0.137052 230.41C0.0493019 230.498 0 230.618 0 230.743C0 230.867 0.0493019 230.987 0.137052 231.075C0.224802 231.164 0.343816 231.213 0.467913 231.213Z" fill="#3F3D56" fill-opacity="0.4"/>
</g>
<defs>
<clipPath id="clip0_1058_349">
<rect width="344" height="231" fill="white" transform="translate(0 0.213135)"/>
</clipPath>
</defs>
</svg>
