<svg width="481" height="322" viewBox="0 0 481 322" fill="none" xmlns="http://www.w3.org/2000/svg">
<g clip-path="url(#clip0_1058_448)">
<path d="M468.717 311.028L463.966 313.057L453.897 295.651L460.909 292.656L468.717 311.028Z" fill="#FFB6B6"/>
<path d="M429.462 315.535L424.299 315.535L421.842 295.564H429.463L429.462 315.535Z" fill="#FFB6B6"/>
<path d="M429.644 320.936L413.765 320.936V320.735C413.766 319.091 414.417 317.515 415.576 316.353C416.735 315.19 418.307 314.538 419.946 314.537H419.946L422.847 312.331L428.258 314.538L429.644 314.538L429.644 320.936Z" fill="#03183F"/>
<path d="M471.605 314.486L456.998 320.728L456.919 320.542C456.276 319.03 456.259 317.324 456.871 315.8C457.483 314.275 458.673 313.056 460.181 312.412L460.182 312.411L461.987 309.241L467.828 309.144L469.103 308.599L471.605 314.486Z" fill="#03183F"/>
<path d="M424.397 197.34L416.55 245.255L418.685 252.395L415.883 257.452L419.998 301.862L418.328 305.55L422.995 308.436H432.493L432.997 268.231L435.343 262.328V259.075L440.119 234.559L440.998 262.602L442.388 268.514L441.221 272.724L442.745 275.673L455.813 303.809H466.463L465.639 297.446C467.547 296.477 462.774 293.646 462.316 291.551L463.884 288.013L462.316 281.33L460.878 268.272L462.394 240.707L461.681 203.588C458.105 198.781 454.138 195.073 449.222 194.035L424.397 197.34Z" fill="#03183F"/>
<path d="M443.508 134.24C449.452 134.24 454.27 129.408 454.27 123.448C454.27 117.488 449.452 112.656 443.508 112.656C437.564 112.656 432.745 117.488 432.745 123.448C432.745 129.408 437.564 134.24 443.508 134.24Z" fill="#FFB6B6"/>
<path d="M399.134 208.661C398.999 208.055 398.999 207.427 399.134 206.821C399.268 206.215 399.533 205.645 399.91 205.153C400.288 204.661 400.768 204.258 401.318 203.972C401.867 203.686 402.473 203.524 403.091 203.498L407.427 189.046L412.439 195.066L407.554 207.867C407.528 208.912 407.121 209.912 406.41 210.676C405.699 211.44 404.733 211.916 403.695 212.014C402.657 212.112 401.62 211.825 400.779 211.207C399.938 210.589 399.353 209.683 399.134 208.661Z" fill="#FFB6B6"/>
<path d="M427.258 149.258L425.315 145.698L422.811 146.536C422.811 146.536 420.047 148.325 416.177 155.076C414.387 158.199 410.517 178.223 410.517 178.223L401.473 202.237L410.694 203.801L418.387 184.01L427.307 165.07L427.258 149.258Z" fill="#9C0332"/>
<path d="M443.109 197.189C450.687 197.189 458.333 198.685 461.464 204.034C461.382 202.871 461.177 200.854 460.964 199.004L460.18 194.033L460.974 189.475L462.023 188.423L460.144 186.539L461.426 177.025L465.657 154.612C465.989 152.848 465.73 151.025 464.921 149.424C464.113 147.823 462.799 146.536 461.185 145.761L457.119 143.801L450.529 137.671L438.608 137.582L434.719 142.652L424.481 146.139L426.199 181.788L425.073 184.423C425.325 184.656 425.858 185.153 426.146 185.473C426.554 185.925 426.034 188.256 425.688 189.605L425.212 193.198L426.71 194.271L424.763 196.578L424.374 199.506C426.307 199.047 434.666 197.189 443.109 197.189Z" fill="#9C0332"/>
<path d="M446.261 133.712C446.307 133.61 446.353 133.508 446.399 133.406C446.381 133.407 446.364 133.409 446.346 133.41L446.261 133.712Z" fill="#03183F"/>
<path d="M454.57 113.147C454.059 112.663 453.394 112.375 452.693 112.333C451.997 112.356 451.291 112.986 451.436 113.669C450.157 111.4 448.123 109.654 445.689 108.739C443.255 107.824 440.577 107.797 438.126 108.665C436.396 109.277 434.7 110.501 434.302 112.296C434.264 112.768 434.123 113.225 433.891 113.637C433.69 113.857 433.429 114.014 433.141 114.087C432.852 114.16 432.548 114.147 432.267 114.05L432.25 114.045C432.154 114.012 432.05 114.008 431.952 114.035C431.853 114.062 431.765 114.118 431.699 114.196C431.633 114.273 431.592 114.369 431.58 114.47C431.569 114.572 431.588 114.674 431.636 114.764L432.125 115.68C431.508 115.818 430.867 115.804 430.256 115.64C430.155 115.613 430.048 115.619 429.95 115.655C429.851 115.692 429.767 115.759 429.708 115.846C429.649 115.932 429.618 116.035 429.619 116.141C429.621 116.246 429.655 116.348 429.717 116.433C430.53 117.549 431.592 118.459 432.818 119.09C434.044 119.722 435.4 120.058 436.778 120.072C438.734 120.06 440.709 119.384 442.613 119.835C443.349 120.01 444.037 120.347 444.626 120.823C445.215 121.299 445.691 121.901 446.018 122.585C446.344 123.269 446.514 124.018 446.515 124.777C446.516 125.535 446.347 126.284 446.021 126.969C446.606 126.328 447.736 126.48 448.334 127.108C448.61 127.445 448.813 127.835 448.932 128.253C449.051 128.672 449.084 129.111 449.027 129.542C448.867 130.864 448.476 132.148 447.871 133.333C450.183 133.262 452.418 132.48 454.273 131.095C456.129 129.709 457.516 127.786 458.246 125.584C458.977 123.383 459.016 121.01 458.358 118.786C457.701 116.562 456.378 114.593 454.57 113.147H454.57Z" fill="#03183F"/>
<path d="M106.736 72.8543C121.514 72.8543 133.494 60.8417 133.494 46.0234C133.494 31.2051 121.514 19.1925 106.736 19.1925C91.9581 19.1925 79.9782 31.2051 79.9782 46.0234C79.9782 60.8417 91.9581 72.8543 106.736 72.8543Z" fill="#9C0332"/>
<path d="M31.5305 125.837C18.1042 96.0585 18.5993 58.3124 39.4363 33.1837C46.4075 68.0287 65.4456 99.2782 93.1823 121.403C103.91 129.897 116.724 138.224 119.654 151.611C121.478 159.941 118.893 168.752 114.425 176.008C109.956 183.264 103.727 189.233 97.5687 195.116L96.8778 197.129C70.0816 178.526 44.9567 155.616 31.5305 125.837Z" fill="#3A6569"/>
<path d="M40.0163 33.5471C35.2209 59.8773 38.7833 87.9143 50.4391 112.038C52.959 117.253 55.968 122.324 59.9965 126.519C64.0269 130.715 68.8457 133.357 74.3892 134.98C79.4571 136.463 84.8123 137.393 89.4323 140.086C94.3019 142.924 97.324 147.688 98.5013 153.15C99.9417 159.833 98.9014 166.637 97.6534 173.255C96.2678 180.603 94.7125 188.213 96.7204 195.6C96.9636 196.495 95.5645 196.821 95.3216 195.927C91.8282 183.076 98.6202 170.401 97.6708 157.48C97.2278 151.451 94.9701 145.519 89.8147 142.026C85.3065 138.971 79.7849 138.008 74.6407 136.55C69.2391 135.02 64.3881 132.681 60.2603 128.803C56.0377 124.835 52.8247 119.872 50.1829 114.744C44.2248 103.179 40.2972 90.4376 38.2192 77.609C35.8297 62.8642 35.9732 47.8182 38.6435 33.122C38.8092 32.2125 40.1808 32.6435 40.0162 33.5471H40.0163Z" fill="white"/>
<path d="M46.2378 104.397C41.8881 105.795 37.1845 105.597 32.967 103.838C28.7495 102.079 25.2927 98.8748 23.214 94.7965C22.7962 93.9699 24.0577 93.2801 24.476 94.1078C26.4047 97.9091 29.625 100.894 33.5557 102.523C37.4864 104.153 41.8685 104.32 45.9111 102.994C46.79 102.707 47.1116 104.111 46.2378 104.397H46.2378Z" fill="white"/>
<path d="M71.7209 134.567C76.0673 126.28 77.1393 116.656 74.7232 107.612C74.4831 106.716 75.8821 106.39 76.122 107.284C78.6187 116.7 77.4828 126.714 72.9409 135.327C72.5074 136.148 71.2897 135.383 71.7208 134.567H71.7209Z" fill="white"/>
<path d="M37.6762 63.3321C39.4716 63.1429 41.192 62.5095 42.6829 61.4888C44.1739 60.4681 45.3886 59.0921 46.2182 57.4843C46.641 56.6586 47.8584 57.4242 47.4382 58.2445C46.5135 60.0166 45.1701 61.5346 43.5253 62.666C41.8805 63.7973 39.9845 64.5076 38.0028 64.7347C37.8178 64.7718 37.6257 64.7369 37.4654 64.637C37.3052 64.5372 37.1889 64.3799 37.1401 64.1971C37.0978 64.0112 37.1304 63.816 37.2307 63.6541C37.3311 63.4921 37.4912 63.3764 37.6762 63.3321Z" fill="white"/>
<path d="M149.785 33.4755C149.536 33.9986 149.286 34.5217 149.043 35.0556C145.725 42.1063 142.985 49.4155 140.848 56.9112C140.674 57.4881 140.506 58.0754 140.349 58.6561C135.393 76.7699 133.834 95.6489 135.752 114.333C136.521 121.768 137.854 129.132 139.738 136.364C142.341 146.351 145.955 156.971 145.14 166.944C145.066 167.985 144.928 169.021 144.727 170.045L99.3805 197.818C99.2458 197.829 99.117 197.851 98.9818 197.863L97.2218 199.055C97.0987 198.689 96.9788 198.306 96.8556 197.94C96.7833 197.728 96.7211 197.51 96.6488 197.298C96.6038 197.154 96.5592 197.01 96.5104 196.884C96.4953 196.836 96.4806 196.788 96.4718 196.751C96.423 196.624 96.3911 196.501 96.3486 196.385C95.6726 194.249 95.0104 192.105 94.362 189.952C94.3557 189.941 94.3557 189.941 94.3595 189.925C89.4609 173.51 85.8859 156.54 84.9931 139.566C84.9664 139.056 84.9329 138.535 84.927 138.011C84.5669 130.358 84.8313 122.688 85.7174 115.078C86.216 110.912 86.9245 106.775 87.8404 102.681C90.227 92.1081 94.2573 81.9775 99.7836 72.6604C110.803 54.0886 127.623 39.2573 148.208 33.8715C148.735 33.7341 149.252 33.6025 149.785 33.4755Z" fill="#3A6569"/>
<path d="M150.035 34.1149C130.396 52.2431 116.407 76.7797 111.229 103.078C110.109 108.763 109.467 114.628 110.165 120.41C110.863 126.194 113.125 131.212 116.576 135.855C119.732 140.099 123.45 144.074 125.521 149.013C127.705 154.22 127.258 159.847 124.918 164.919C122.056 171.125 117.14 175.929 112.17 180.46C106.652 185.49 100.84 190.628 98.0084 197.738C97.6653 198.599 96.3523 198.015 96.6949 197.155C101.622 184.785 114.656 178.765 121.656 167.875C124.922 162.794 126.681 156.695 124.662 150.793C122.897 145.632 119.066 141.53 115.834 137.26C112.44 132.777 109.971 127.982 109.004 122.393C108.015 116.676 108.429 110.773 109.399 105.084C111.586 92.253 116.1 79.7084 122.144 68.211C129.089 54.9955 138.238 43.0688 149.194 32.9468C149.872 32.3206 150.709 33.4928 150.035 34.1149L150.035 34.1149Z" fill="white"/>
<path d="M112.462 94.4406C108.15 92.9307 104.513 89.933 102.201 85.9827C99.8899 82.0324 99.054 77.3868 99.843 72.8756C100.006 71.9633 101.427 72.1741 101.264 73.0876C100.522 77.2871 101.301 81.6144 103.461 85.2885C105.621 88.9625 109.019 91.7414 113.043 93.1235C113.917 93.4249 113.331 94.7402 112.462 94.4406H112.462Z" fill="white"/>
<path d="M114.694 133.914C123.139 129.922 129.774 122.884 133.275 114.205C133.621 113.344 134.934 113.928 134.589 114.788C130.929 123.813 124.009 131.122 115.211 135.257C114.373 135.651 113.859 134.305 114.694 133.914L114.694 133.914Z" fill="white"/>
<path d="M130.283 56.4839C131.83 57.4168 133.584 57.9497 135.387 58.0348C137.19 58.12 138.986 57.7547 140.614 56.9717C141.447 56.5677 141.96 57.9139 141.132 58.3153C139.329 59.1719 137.345 59.5729 135.353 59.4833C133.36 59.3936 131.42 58.8161 129.701 57.8011C129.531 57.719 129.399 57.5751 129.331 57.3986C129.263 57.2222 129.264 57.0264 129.335 56.851C129.413 56.677 129.556 56.5408 129.734 56.4721C129.911 56.4034 130.108 56.4076 130.283 56.4839Z" fill="white"/>
<path d="M257.137 93.2194C243.71 63.4405 244.205 25.6944 265.042 0.565674C272.014 35.4107 291.052 66.6601 318.788 88.785C329.516 97.2788 342.33 105.606 345.261 118.993C347.084 127.323 344.499 136.134 340.031 143.39C335.562 150.646 329.333 156.615 323.175 162.498L322.484 164.511C295.688 145.908 270.563 122.998 257.137 93.2194Z" fill="#3A6569"/>
<path d="M265.622 0.929038C260.827 27.2593 264.389 55.2962 276.045 79.4197C278.565 84.6351 281.574 89.7058 285.603 93.9005C289.633 98.097 294.452 100.739 299.995 102.362C305.063 103.845 310.418 104.775 315.038 107.468C319.908 110.306 322.93 115.07 324.107 120.532C325.548 127.215 324.507 134.019 323.259 140.637C321.874 147.985 320.319 155.595 322.326 162.982C322.57 163.877 321.17 164.203 320.928 163.309C317.434 150.458 324.226 137.783 323.277 124.862C322.834 118.833 320.576 112.901 315.421 109.408C310.912 106.353 305.391 105.39 300.247 103.932C294.845 102.402 289.994 100.063 285.866 96.1849C281.644 92.2174 278.431 87.2539 275.789 82.126C269.831 70.5612 265.903 57.8195 263.825 44.9909C261.436 30.2462 261.579 15.2002 264.25 0.503953C264.415 -0.405584 265.787 0.0254677 265.622 0.929038H265.622Z" fill="white"/>
<path d="M271.844 71.7789C267.494 73.1767 262.791 72.9787 258.573 71.2201C254.356 69.4615 250.899 66.2569 248.82 62.1786C248.402 61.352 249.664 60.6622 250.082 61.4899C252.011 65.2912 255.231 68.276 259.162 69.9055C263.093 71.535 267.475 71.702 271.517 70.3763C272.396 70.0892 272.718 71.4935 271.844 71.7789Z" fill="white"/>
<path d="M297.327 101.949C301.673 93.6623 302.745 84.0377 300.329 74.994C300.089 74.0982 301.488 73.7717 301.728 74.6665C304.225 84.0823 303.089 94.0959 298.547 102.709C298.113 103.53 296.896 102.765 297.327 101.949H297.327Z" fill="white"/>
<path d="M263.282 30.714C265.078 30.5248 266.798 29.8914 268.289 28.8708C269.78 27.8501 270.995 26.4741 271.824 24.8663C272.247 24.0405 273.464 24.8061 273.044 25.6265C272.12 27.3986 270.776 28.9166 269.131 30.0479C267.487 31.1793 265.591 31.8895 263.609 32.1166C263.424 32.1538 263.232 32.1188 263.072 32.019C262.911 31.9191 262.795 31.7619 262.746 31.5791C262.704 31.3932 262.736 31.198 262.837 31.036C262.937 30.874 263.097 30.7583 263.282 30.714V30.714Z" fill="white"/>
<path d="M375.391 0.857422C375.142 1.38056 374.892 1.90371 374.649 2.43754C371.331 9.48822 368.591 16.7975 366.454 24.2932C366.28 24.8701 366.112 25.4573 365.955 26.0381C360.999 44.1519 359.44 63.0309 361.358 81.7153C362.127 89.1495 363.46 96.5143 365.344 103.746C367.947 113.733 371.561 124.353 370.746 134.326C370.672 135.367 370.534 136.403 370.333 137.427L324.986 165.2C324.852 165.211 324.723 165.233 324.588 165.245L322.828 166.437C322.705 166.071 322.585 165.688 322.462 165.322C322.389 165.11 322.327 164.892 322.255 164.68C322.21 164.536 322.165 164.392 322.116 164.266C322.101 164.218 322.087 164.17 322.078 164.133C322.029 164.006 321.997 163.883 321.955 163.766C321.279 161.631 320.616 159.487 319.968 157.334C319.962 157.323 319.962 157.323 319.966 157.307C315.067 140.892 311.492 123.922 310.599 106.948C310.572 106.438 310.539 105.917 310.533 105.393C310.173 97.74 310.437 90.0699 311.323 82.4598C311.822 78.2942 312.531 74.1567 313.446 70.063C315.833 59.4901 319.863 49.3594 325.39 40.0424C336.409 21.4706 353.229 6.63924 373.814 1.25342C374.341 1.11603 374.858 0.984437 375.391 0.857422Z" fill="#3A6569"/>
<path d="M375.641 1.49697C356.002 19.6252 342.013 44.1618 336.835 70.4597C335.715 76.1453 335.073 82.0105 335.771 87.7918C336.469 93.5756 338.731 98.5941 342.182 103.237C345.338 107.481 349.056 111.456 351.128 116.395C353.311 121.602 352.864 127.229 350.525 132.301C347.662 138.507 342.746 143.311 337.776 147.842C332.258 152.872 326.447 158.01 323.615 165.12C323.271 165.981 321.958 165.397 322.301 164.537C327.228 152.167 340.262 146.147 347.262 135.257C350.528 130.176 352.287 124.077 350.268 118.175C348.503 113.014 344.672 108.912 341.44 104.643C338.046 100.159 335.577 95.3638 334.61 89.775C333.621 84.058 334.036 78.1552 335.005 72.4659C337.192 59.6351 341.706 47.0905 347.75 35.593C354.695 22.3776 363.844 10.4509 374.8 0.328847C375.478 -0.29736 376.315 0.874869 375.641 1.49698L375.641 1.49697Z" fill="white"/>
<path d="M338.068 61.8225C333.756 60.3127 330.119 57.3149 327.808 53.3646C325.496 49.4143 324.66 44.7688 325.449 40.2575C325.612 39.3453 327.033 39.5561 326.87 40.4695C326.128 44.669 326.907 48.9963 329.067 52.6704C331.227 56.3445 334.625 59.1233 338.649 60.5054C339.523 60.8068 338.937 62.1222 338.068 61.8225H338.068Z" fill="white"/>
<path d="M340.3 101.296C348.745 97.3037 355.38 90.2661 358.881 81.5866C359.227 80.7264 360.541 81.3104 360.195 82.1696C356.535 91.1949 349.615 98.5044 340.817 102.639C339.979 103.033 339.465 101.687 340.3 101.296L340.3 101.296Z" fill="white"/>
<path d="M355.889 23.866C357.436 24.7988 359.19 25.3318 360.993 25.4169C362.796 25.502 364.592 25.1367 366.22 24.3538C367.054 23.9498 367.566 25.296 366.738 25.6974C364.935 26.554 362.951 26.955 360.959 26.8654C358.966 26.7757 357.026 26.1982 355.307 25.1831C355.137 25.1011 355.005 24.9572 354.937 24.7807C354.869 24.6043 354.87 24.4084 354.941 24.2331C355.019 24.0591 355.162 23.9229 355.34 23.8542C355.517 23.7855 355.714 23.7897 355.889 23.866Z" fill="white"/>
<path d="M86.0119 314.07L90.9683 317.919L110.239 321.271L131.658 267.883C131.658 267.883 144.774 226.738 181.501 235.155L299.551 233.051C299.551 233.051 335.796 229.326 341.786 246.466C342.921 249.713 373.529 321.435 373.529 321.435L394.988 318.398L392.416 257.251L341.448 138.616L252.855 133.07L161.564 139.406L86.0119 314.07Z" fill="#03183F"/>
<path d="M184.124 238.838C202.959 238.838 218.228 223.528 218.228 204.642C218.228 185.756 202.959 170.445 184.124 170.445C165.29 170.445 150.021 185.756 150.021 204.642C150.021 223.528 165.29 238.838 184.124 238.838Z" fill="#E6E6E6"/>
<path d="M298.501 238.838C317.336 238.838 332.605 223.528 332.605 204.642C332.605 185.756 317.336 170.445 298.501 170.445C279.667 170.445 264.398 185.756 264.398 204.642C264.398 223.528 279.667 238.838 298.501 238.838Z" fill="#E6E6E6"/>
<path d="M144.25 92.583L158.292 89.8221C158.292 89.8221 264.014 74.6957 330.838 92.583L325.784 106.788L148.972 105.735L144.25 92.583Z" fill="#E6E6E6"/>
<path d="M286.795 165.973H197.073C186.179 165.973 176.764 158.41 174.686 147.988L164.867 98.7433C164.649 97.6687 164.658 96.5604 164.892 95.4893C165.126 94.4182 165.58 93.4078 166.226 92.5226C166.901 91.5939 167.759 90.8143 168.747 90.2322C169.735 89.6501 170.832 89.2779 171.97 89.1387C219.291 83.2489 266.149 83.2389 311.243 89.1081C312.364 89.2459 313.446 89.6136 314.42 90.1885C315.394 90.7634 316.239 91.5331 316.904 92.4497C317.545 93.3221 318 94.3174 318.242 95.3739C318.483 96.4303 318.504 97.5252 318.305 98.5904L309.241 147.684C307.285 158.282 297.845 165.973 286.795 165.973Z" fill="#9C0332"/>
<path d="M104.338 100.6L104.729 93.5532C104.79 92.4553 105.115 91.3886 105.677 90.4443C106.239 89.5 107.02 88.7063 107.955 88.1312C113.62 84.6463 128.901 76.9737 148.403 80.9957C149.772 81.2799 151.021 81.9801 151.98 83.001C152.938 84.0219 153.56 85.3141 153.761 86.7019L154.283 90.3686L104.338 100.6Z" fill="#03183F"/>
<path d="M379.337 100.6L329.392 90.3687L330.231 84.4778C330.328 83.7822 330.63 83.1315 331.098 82.6094C331.567 82.0872 332.18 81.7175 332.86 81.5478C355.35 75.8884 372.564 85.9387 377.305 89.1539C377.755 89.4602 378.129 89.866 378.397 90.3401C378.666 90.8142 378.822 91.3439 378.854 91.8882L379.337 100.6Z" fill="#03183F"/>
<path d="M88.4802 318.665C87.2766 318.678 86.0946 318.345 85.0742 317.704C71.7012 309.874 63.3639 295.525 60.313 275.066C57.7929 258.168 58.8453 236.957 63.4408 212.023C71.5882 167.817 88.6644 123.63 95.628 106.684C96.5505 104.448 97.9841 102.46 99.8132 100.88C101.642 99.3008 103.816 98.1743 106.158 97.5913C120.514 94.0507 145.575 88.1111 152.12 88.1111C161.089 88.1111 165.942 96.5772 165.99 96.6627L166.017 96.7326L173.893 130.982V131.476C178.239 146.219 175.01 156.868 171.534 163.206C167.761 170.086 162.879 173.521 162.83 173.555C155.165 179.407 142.675 198.258 130.246 222.747C117.329 248.195 107.754 273.305 104.633 289.918C100.812 310.251 95.212 316.476 91.1865 318.117C90.3286 318.475 89.4093 318.661 88.4802 318.665Z" fill="#E6E6E6"/>
<path d="M283.838 161.765H199.062C194.059 161.758 189.213 160.009 185.352 156.818C181.492 153.626 178.856 149.189 177.895 144.266L168.617 96.3718C168.411 95.3116 168.424 94.2204 168.655 93.1654C168.886 92.1105 169.33 91.1142 169.96 90.2382C170.591 89.3621 171.393 88.6249 172.318 88.0721C173.244 87.5192 174.272 87.1624 175.34 87.0238C220.055 81.2956 264.331 81.2858 306.94 86.994C307.993 87.1378 309.006 87.4939 309.919 88.041C310.831 88.588 311.623 89.3147 312.248 90.1771C312.873 91.0395 313.317 92.0198 313.553 93.059C313.79 94.0981 313.814 95.1745 313.625 96.2233L305.06 143.97C304.168 148.962 301.554 153.481 297.674 156.734C293.793 159.987 288.896 161.768 283.838 161.765Z" fill="#E6E6E6"/>
<path d="M395.197 318.666C394.267 318.661 393.347 318.475 392.488 318.117C388.463 316.476 382.863 310.251 379.042 289.918C375.921 273.305 366.346 248.195 353.429 222.747C341 198.259 328.51 179.407 320.835 173.548C320.796 173.521 315.914 170.086 312.141 163.207C308.665 156.868 305.436 146.219 309.782 131.476L309.788 130.923L317.667 96.6957L317.685 96.6629C317.733 96.5773 322.586 88.1112 331.555 88.1112C338.1 88.1112 363.161 94.0508 377.517 97.5915C379.859 98.1746 382.033 99.3012 383.862 100.881C385.691 102.46 387.124 104.448 388.047 106.685C395.011 123.63 412.087 167.817 420.234 212.023C424.83 236.957 425.882 258.168 423.362 275.067C420.311 295.525 411.974 309.874 398.582 317.716C397.567 318.35 396.392 318.68 395.197 318.666Z" fill="#E6E6E6"/>
<path d="M184.124 219.372C195.425 219.372 204.586 210.186 204.586 198.855C204.586 187.523 195.425 178.337 184.124 178.337C172.823 178.337 163.662 187.523 163.662 198.855C163.662 210.186 172.823 219.372 184.124 219.372Z" fill="#03183F"/>
<path d="M184.124 212.533C191.658 212.533 197.766 206.409 197.766 198.855C197.766 191.3 191.658 185.176 184.124 185.176C176.59 185.176 170.483 191.3 170.483 198.855C170.483 206.409 176.59 212.533 184.124 212.533Z" fill="#E6E6E6"/>
<path d="M298.501 219.372C309.802 219.372 318.963 210.186 318.963 198.855C318.963 187.523 309.802 178.337 298.501 178.337C287.2 178.337 278.039 187.523 278.039 198.855C278.039 210.186 287.2 219.372 298.501 219.372Z" fill="#03183F"/>
<path d="M298.501 212.533C306.035 212.533 312.143 206.409 312.143 198.855C312.143 191.3 306.035 185.176 298.501 185.176C290.967 185.176 284.86 191.3 284.86 198.855C284.86 206.409 290.967 212.533 298.501 212.533Z" fill="#E6E6E6"/>
<path d="M228.721 174.128C229.59 174.128 230.295 173.421 230.295 172.55C230.295 171.678 229.59 170.971 228.721 170.971C227.852 170.971 227.147 171.678 227.147 172.55C227.147 173.421 227.852 174.128 228.721 174.128Z" fill="#E6E6E6"/>
<path d="M235.541 174.128C236.411 174.128 237.115 173.421 237.115 172.55C237.115 171.678 236.411 170.971 235.541 170.971C234.672 170.971 233.967 171.678 233.967 172.55C233.967 173.421 234.672 174.128 235.541 174.128Z" fill="#E6E6E6"/>
<path d="M232.393 179.915C233.263 179.915 233.967 179.209 233.967 178.337C233.967 177.465 233.263 176.759 232.393 176.759C231.524 176.759 230.819 177.465 230.819 178.337C230.819 179.209 231.524 179.915 232.393 179.915Z" fill="#E6E6E6"/>
<path d="M238.689 179.915C239.559 179.915 240.263 179.209 240.263 178.337C240.263 177.465 239.559 176.759 238.689 176.759C237.82 176.759 237.115 177.465 237.115 178.337C237.115 179.209 237.82 179.915 238.689 179.915Z" fill="#E6E6E6"/>
<path d="M244.985 179.915C245.855 179.915 246.559 179.209 246.559 178.337C246.559 177.465 245.855 176.759 244.985 176.759C244.116 176.759 243.411 177.465 243.411 178.337C243.411 179.209 244.116 179.915 244.985 179.915Z" fill="#E6E6E6"/>
<path d="M251.281 179.915C252.151 179.915 252.855 179.209 252.855 178.337C252.855 177.465 252.151 176.759 251.281 176.759C250.412 176.759 249.707 177.465 249.707 178.337C249.707 179.209 250.412 179.915 251.281 179.915Z" fill="#E6E6E6"/>
<path d="M242.362 174.128C243.231 174.128 243.936 173.421 243.936 172.55C243.936 171.678 243.231 170.971 242.362 170.971C241.493 170.971 240.788 171.678 240.788 172.55C240.788 173.421 241.493 174.128 242.362 174.128Z" fill="#E6E6E6"/>
<path d="M249.183 174.128C250.052 174.128 250.757 173.421 250.757 172.55C250.757 171.678 250.052 170.971 249.183 170.971C248.313 170.971 247.609 171.678 247.609 172.55C247.609 173.421 248.313 174.128 249.183 174.128Z" fill="#E6E6E6"/>
<path d="M256.003 174.128C256.873 174.128 257.577 173.421 257.577 172.55C257.577 171.678 256.873 170.971 256.003 170.971C255.134 170.971 254.429 171.678 254.429 172.55C254.429 173.421 255.134 174.128 256.003 174.128Z" fill="#E6E6E6"/>
<path d="M248.658 221.214H235.017C234.391 221.214 233.79 220.964 233.347 220.52C232.905 220.076 232.656 219.474 232.656 218.846C232.656 218.218 232.905 217.616 233.347 217.172C233.79 216.728 234.391 216.479 235.017 216.479H248.658C249.284 216.479 249.885 216.728 250.328 217.172C250.77 217.616 251.019 218.218 251.019 218.846C251.019 219.474 250.77 220.076 250.328 220.52C249.885 220.964 249.284 221.214 248.658 221.214Z" fill="#E6E6E6"/>
<path d="M158.334 118.302C157.453 118.299 156.599 118 155.91 117.451C155.22 116.902 154.735 116.136 154.533 115.277L152.441 106.371C152.204 105.359 152.378 104.294 152.924 103.41C153.47 102.526 154.344 101.896 155.353 101.657C156.362 101.419 157.425 101.592 158.307 102.138C159.189 102.685 159.819 103.56 160.057 104.572L162.149 113.478C162.284 114.055 162.287 114.654 162.158 115.232C162.029 115.81 161.771 116.351 161.404 116.815C161.037 117.279 160.571 117.653 160.039 117.911C159.507 118.168 158.924 118.302 158.334 118.302Z" fill="#03183F"/>
<path d="M325.866 117.776C325.275 117.776 324.693 117.642 324.161 117.385C323.629 117.127 323.162 116.753 322.795 116.289C322.429 115.825 322.171 115.284 322.042 114.706C321.913 114.128 321.916 113.529 322.05 112.952L324.142 104.046C324.381 103.034 325.011 102.159 325.893 101.612C326.775 101.066 327.837 100.893 328.847 101.131C329.856 101.369 330.73 102 331.276 102.884C331.822 103.768 331.995 104.833 331.759 105.845L329.667 114.751C329.464 115.61 328.979 116.376 328.29 116.925C327.6 117.474 326.746 117.773 325.866 117.776Z" fill="#03183F"/>
<path d="M129.469 144.59C128.182 144.59 126.925 144.192 125.871 143.451L121.48 140.369C120.654 139.789 119.979 139.017 119.513 138.12C119.047 137.223 118.804 136.226 118.803 135.215V125.775C118.806 123.879 119.558 122.062 120.894 120.721C122.231 119.381 124.043 118.627 125.934 118.625H132.66C134.55 118.627 136.363 119.381 137.699 120.721C139.036 122.062 139.788 123.879 139.79 125.775V135.307C139.788 136.293 139.556 137.264 139.113 138.143C138.67 139.023 138.028 139.786 137.237 140.372L133.191 143.362C132.113 144.16 130.809 144.59 129.469 144.59Z" fill="#03183F"/>
<path d="M132.66 179.126H125.934C124.043 179.124 122.231 178.37 120.894 177.029C119.558 175.689 118.806 173.872 118.803 171.976V162.536C118.804 161.525 119.047 160.528 119.513 159.631C119.979 158.734 120.654 157.962 121.48 157.382L125.871 154.299C126.947 153.544 128.232 153.146 129.545 153.162C130.859 153.178 132.134 153.607 133.191 154.389L137.237 157.379C138.028 157.965 138.67 158.728 139.113 159.607C139.556 160.487 139.788 161.458 139.79 162.443V171.976C139.788 173.872 139.036 175.689 137.699 177.029C136.363 178.37 134.55 179.124 132.66 179.126Z" fill="#03183F"/>
<path d="M153.646 159.397H144.232C143.223 159.397 142.229 159.153 141.335 158.686C140.44 158.218 139.671 157.542 139.092 156.714L136.018 152.31C135.264 151.232 134.867 149.943 134.883 148.626C134.899 147.309 135.327 146.03 136.107 144.97L139.089 140.913C139.673 140.121 140.434 139.477 141.311 139.032C142.188 138.588 143.157 138.355 144.14 138.353H153.646C155.537 138.356 157.349 139.11 158.686 140.45C160.023 141.79 160.775 143.608 160.777 145.503V152.247C160.775 154.143 160.023 155.96 158.686 157.301C157.349 158.641 155.537 159.395 153.646 159.397Z" fill="#03183F"/>
<path d="M113.837 159.397H104.423C102.532 159.395 100.72 158.641 99.383 157.301C98.0463 155.96 97.2943 154.143 97.2922 152.247V145.503C97.2943 143.608 98.0462 141.79 99.383 140.45C100.72 139.11 102.532 138.356 104.423 138.353H113.929C114.912 138.355 115.881 138.588 116.758 139.032C117.635 139.477 118.396 140.121 118.98 140.913L121.962 144.97C122.742 146.03 123.17 147.309 123.186 148.626C123.202 149.943 122.805 151.232 122.051 152.31L118.977 156.714C118.398 157.542 117.629 158.218 116.734 158.686C115.839 159.153 114.846 159.397 113.837 159.397Z" fill="#03183F"/>
<path d="M354.641 134.145C361.305 134.145 366.708 128.727 366.708 122.044C366.708 115.362 361.305 109.944 354.641 109.944C347.976 109.944 342.573 115.362 342.573 122.044C342.573 128.727 347.976 134.145 354.641 134.145Z" fill="#03183F"/>
<path d="M381.398 162.028C388.063 162.028 393.466 156.61 393.466 149.928C393.466 143.245 388.063 137.827 381.398 137.827C374.734 137.827 369.331 143.245 369.331 149.928C369.331 156.61 374.734 162.028 381.398 162.028Z" fill="#03183F"/>
<path d="M354.641 188.333C361.305 188.333 366.708 182.915 366.708 176.232C366.708 169.55 361.305 164.132 354.641 164.132C347.976 164.132 342.573 169.55 342.573 176.232C342.573 182.915 347.976 188.333 354.641 188.333Z" fill="#03183F"/>
<path d="M327.883 161.502C334.547 161.502 339.95 156.084 339.95 149.401C339.95 142.719 334.547 137.301 327.883 137.301C321.218 137.301 315.815 142.719 315.815 149.401C315.815 156.084 321.218 161.502 327.883 161.502Z" fill="#03183F"/>
<path d="M381.398 157.819C379.842 157.819 378.32 157.356 377.026 156.489C375.732 155.622 374.723 154.389 374.128 152.947C373.532 151.506 373.376 149.919 373.68 148.388C373.983 146.857 374.733 145.451 375.834 144.347C376.934 143.244 378.336 142.492 379.863 142.188C381.39 141.883 382.972 142.04 384.41 142.637C385.848 143.234 387.077 144.246 387.942 145.543C388.807 146.841 389.268 148.367 389.268 149.928C389.266 152.02 388.436 154.026 386.961 155.505C385.485 156.984 383.485 157.817 381.398 157.819ZM381.398 143.088C380.049 143.088 378.731 143.489 377.609 144.241C376.487 144.992 375.613 146.061 375.097 147.31C374.581 148.56 374.446 149.935 374.709 151.262C374.972 152.589 375.622 153.807 376.575 154.764C377.529 155.72 378.745 156.372 380.068 156.635C381.391 156.899 382.762 156.764 384.009 156.246C385.255 155.729 386.32 154.852 387.07 153.727C387.819 152.603 388.219 151.28 388.219 149.928C388.217 148.114 387.498 146.376 386.219 145.094C384.94 143.812 383.207 143.09 381.398 143.088Z" fill="#E6E6E6"/>
<path d="M363.073 127.915L347.257 127.691L355.359 114.069L363.073 127.915ZM349.089 126.665L361.271 126.838L355.329 116.173L349.089 126.665Z" fill="#E6E6E6"/>
<path d="M334.179 155.715H321.587V143.088H334.179V155.715ZM322.636 154.662H333.129V144.14H322.636V154.662Z" fill="#E6E6E6"/>
<path d="M361.152 181.665L355.384 175.891L360.471 170.8L359.729 170.055L354.641 175.148L349.552 170.055L348.811 170.8L353.898 175.891L348.129 181.665L348.87 182.41L354.641 176.635L360.411 182.41L361.152 181.665Z" fill="#E6E6E6"/>
<path d="M129.452 38.8469C127.895 38.8469 126.374 38.384 125.079 37.5169C123.785 36.6498 122.776 35.4173 122.181 33.9753C121.585 32.5334 121.429 30.9467 121.733 29.4159C122.037 27.8851 122.786 26.479 123.887 25.3753C124.987 24.2717 126.39 23.5201 127.916 23.2156C129.443 22.9111 131.025 23.0674 132.463 23.6647C133.901 24.262 135.131 25.2734 135.995 26.5712C136.86 27.8689 137.322 29.3946 137.322 30.9554C137.319 33.0476 136.489 35.0535 135.014 36.5329C133.539 38.0123 131.538 38.8445 129.452 38.8469ZM129.452 24.1162C128.103 24.1162 126.784 24.5173 125.662 25.2688C124.541 26.0203 123.666 27.0884 123.15 28.3381C122.634 29.5879 122.499 30.963 122.762 32.2897C123.025 33.6164 123.675 34.835 124.629 35.7915C125.583 36.748 126.798 37.3994 128.121 37.6633C129.444 37.9272 130.816 37.7917 132.062 37.2741C133.308 36.7564 134.373 35.8798 135.123 34.7551C135.872 33.6304 136.272 32.3081 136.272 30.9554C136.27 29.1421 135.551 27.4037 134.272 26.1215C132.994 24.8394 131.26 24.1182 129.452 24.1162Z" fill="#E6E6E6"/>
<path d="M111.651 25.7784L95.8352 25.5541L103.937 11.9319L111.651 25.7784ZM97.6674 24.5276L109.848 24.7005L103.907 14.0363L97.6674 24.5276Z" fill="#E6E6E6"/>
<path d="M88.3728 44.9714H75.7809V32.3451H88.3728V44.9714ZM76.8302 43.9192H87.3235V33.3973H76.8302V43.9192Z" fill="#E6E6E6"/>
<path d="M99.7614 68.4794L93.9927 62.706L99.0799 57.6149L98.3385 56.87L93.2498 61.9626L88.1611 56.87L87.4197 57.6149L92.5069 62.706L86.7382 68.4794L87.4795 69.2243L93.2498 63.4494L99.0201 69.2243L99.7614 68.4794Z" fill="#E6E6E6"/>
<path opacity="0.2" d="M455.114 181.23L434.749 196.599L457.737 186.491L455.114 181.23Z" fill="black"/>
<path d="M78.4044 200.17L52.6958 201.222L49.5478 183.861L71.5837 177.021L78.4044 200.17Z" fill="#A0616A"/>
<path d="M68.9523 157.621L63.2182 151.767L70.249 140.987L82.2827 120.901C81.8895 120.036 81.7676 119.071 81.933 118.135C82.0985 117.199 82.5435 116.335 83.2092 115.658C83.8749 114.98 84.7299 114.522 85.6612 114.343C86.5925 114.163 87.5561 114.272 88.4246 114.653C89.2931 115.035 90.0255 115.672 90.525 116.481C91.0245 117.289 91.2675 118.23 91.2219 119.18C91.1763 120.13 90.8441 121.043 90.2695 121.8C89.6948 122.556 88.9047 123.12 88.0036 123.416L78.0708 144.859L68.9523 157.621Z" fill="#A0616A"/>
<path d="M62.6004 170.987C61.9271 172.032 60.9678 172.861 59.8372 173.374C58.7065 173.888 57.4524 174.064 56.2246 173.881C55.0561 173.743 53.9532 173.266 53.0514 172.508C52.1496 171.75 51.4882 170.744 51.1484 169.615C50.8981 168.813 50.8252 167.966 50.9348 167.133C51.0444 166.3 51.3339 165.501 51.7831 164.792C55.6191 158.308 62.6939 149.745 62.7648 149.659L62.8775 149.523L74.8101 152.115L62.6004 170.987Z" fill="#9C0332"/>
<path d="M72.2768 314.486L79.4065 314.485L82.7979 286.91L72.2752 286.91L72.2768 314.486Z" fill="#A0616A"/>
<path d="M70.4579 312.152L84.4989 312.151H84.4995C86.8726 312.151 89.1485 313.097 90.8265 314.779C92.5046 316.462 93.4474 318.744 93.4475 321.123V321.415L70.4583 321.416L70.4579 312.152Z" fill="#03183F"/>
<path d="M16.762 311.391L23.8114 312.459L31.2764 285.702L22.0349 284.125L16.762 311.391Z" fill="#A0616A"/>
<path d="M15.3117 308.811L29.195 310.915L29.1956 310.915C31.542 311.271 33.6514 312.546 35.0597 314.462C36.4681 316.377 37.0601 318.775 36.7055 321.128L36.662 321.416L13.931 317.971L15.3117 308.811Z" fill="#03183F"/>
<path d="M51.6463 195.961L76.3056 191.752L83.9356 207.523L84.2263 310.447L70.6925 310.362L65.0351 227.058L28.9788 304.032L14.44 302.283L46.1346 219.768C46.1346 219.768 44.39 205.19 49.9147 197.901L51.6463 195.961Z" fill="#03183F"/>
<path d="M42.4918 164.89C42.1149 163.755 42.0749 162.535 42.3766 161.377C42.6782 160.219 43.3086 159.174 44.1912 158.369L47.6957 155.175L57.5757 153.506L63.7532 152.38L73.6823 181.23L49.5671 192.34C47.4507 191.882 46.6053 190.721 47.8368 188.413L42.4918 164.89Z" fill="#9C0332"/>
<path d="M64.6237 174.625L71.5221 170.211L80.5856 179.338L97.6943 195.298C98.6199 195.091 99.5863 195.171 100.466 195.527C101.345 195.883 102.096 196.499 102.619 197.292C103.142 198.085 103.412 199.019 103.395 199.969C103.377 200.92 103.072 201.843 102.52 202.616C101.968 203.389 101.194 203.976 100.302 204.299C99.4104 204.621 98.4417 204.665 97.5244 204.424C96.6072 204.183 95.7846 203.668 95.1654 202.948C94.5462 202.227 94.1597 201.336 94.057 200.39L75.1892 186.21L64.6237 174.625Z" fill="#A0616A"/>
<path d="M52.8967 165.628C52.0159 164.752 51.4056 163.639 51.1386 162.424C50.8717 161.208 50.9594 159.942 51.3913 158.775C51.7683 157.658 52.4624 156.675 53.3884 155.947C54.3145 155.219 55.4322 154.778 56.6045 154.678C57.4386 154.598 58.2799 154.702 59.0699 154.982C59.8598 155.261 60.5794 155.711 61.1785 156.298C66.7116 161.402 73.6035 170.115 73.6724 170.202L73.7818 170.341L68.7842 181.511L52.8967 165.628Z" fill="#9C0332"/>
<path d="M53.2397 149.996C59.2294 149.996 64.085 145.127 64.085 139.121C64.085 133.115 59.2294 128.246 53.2397 128.246C47.25 128.246 42.3943 133.115 42.3943 139.121C42.3943 145.127 47.25 149.996 53.2397 149.996Z" fill="#A0616A"/>
<path d="M44.4592 154.614C42.7774 154.613 41.0971 154.511 39.4277 154.306L39.1988 154.278L37.4519 144.768C36.711 140.737 37.5371 136.574 39.7606 133.134C41.9841 129.694 45.4363 127.238 49.4088 126.27C49.6738 126.203 49.9523 126.21 50.2135 126.291C50.4747 126.373 50.7086 126.524 50.8893 126.73L51.306 126.584C52.9011 126.027 54.5902 125.789 56.2768 125.886C57.9634 125.983 59.6144 126.412 61.1357 127.149C62.6569 127.885 64.0186 128.915 65.1429 130.179C66.2672 131.444 67.1322 132.918 67.6884 134.517L67.7917 134.814L65.0113 135.786C64.145 136.089 63.3569 136.582 62.7044 137.229C62.0519 137.876 61.5513 138.66 61.2391 139.525C60.927 140.39 60.811 141.314 60.8998 142.23C60.9885 143.146 61.2796 144.03 61.7521 144.819L64.5948 149.564L64.2921 149.716C58.1566 152.888 51.3621 154.566 44.4592 154.614Z" fill="#03183F"/>
<path d="M417.055 200.122C417.18 199.514 417.437 198.941 417.807 198.443C418.178 197.945 418.652 197.535 419.198 197.241C419.743 196.947 420.346 196.777 420.964 196.742C421.583 196.707 422.201 196.809 422.776 197.04L432.639 185.641L434.749 193.192L425.059 202.859C424.609 203.802 423.829 204.546 422.868 204.951C421.907 205.356 420.831 205.393 419.844 205.055C418.858 204.718 418.029 204.029 417.515 203.12C417 202.211 416.837 201.144 417.055 200.122H417.055Z" fill="#FFB6B6"/>
<path d="M461.07 150.006L465.111 149.787L465.719 152.362C465.719 152.362 465.659 155.66 461.975 162.516C458.29 169.371 429.743 199.892 429.743 199.892L423.56 192.856L438.841 177.073L448.095 160.531L461.07 150.006Z" fill="#9C0332"/>
<path d="M0.654262 322H480.346C480.519 322 480.686 321.931 480.808 321.808C480.931 321.685 481 321.518 481 321.344C481 321.17 480.931 321.003 480.808 320.88C480.686 320.757 480.519 320.688 480.346 320.688H0.654262C0.480743 320.688 0.314331 320.757 0.191634 320.88C0.0689367 321.003 0 321.17 0 321.344C0 321.518 0.0689367 321.685 0.191634 321.808C0.314331 321.931 0.480743 322 0.654262 322Z" fill="#3F3D56" fill-opacity="0.4"/>
</g>
<defs>
<clipPath id="clip0_1058_448">
<rect width="481" height="322" fill="white"/>
</clipPath>
</defs>
</svg>
